<svg id="SVGRoot" width="48px" height="48px" version="1.1" viewBox="0 0 48 48" xmlns="http://www.w3.org/2000/svg">
 <rect x="1" y="1" width="46" height="46" ry="16" style="fill:#52422c;paint-order:stroke fill markers;stroke-width:1.0455"/>
 <path d="m24 9a14 14 0 0 0-14 14 14 14 0 0 0 14 14 14 14 0 0 0 14-14 14 14 0 0 0-14-14zm-3 2.3906v8.6094h-8.6055a12 12 0 0 1 8.6055-8.6094zm6 0.0039a12 12 0 0 1 8.6094 8.6055h-8.6094zm-14.609 14.605h8.6094v8.6055a12 12 0 0 1-8.6094-8.6055zm14.609 0h8.6055a12 12 0 0 1-8.6055 8.6094z" style="opacity:.2;paint-order:stroke fill markers"/>
 <path d="m24 8a14 14 0 0 0-14 14 14 14 0 0 0 14 14 14 14 0 0 0 14-14 14 14 0 0 0-14-14zm-3 2.3906v8.6094h-8.6055a12 12 0 0 1 8.6055-8.6094zm6 0.003906a12 12 0 0 1 8.6094 8.6055h-8.6094v-8.6055zm-14.609 14.605h8.6094v8.6055a12 12 0 0 1-8.6094-8.6055zm14.609 0h8.6055a12 12 0 0 1-8.6055 8.6094v-8.6094z" style="fill:#ae812e;paint-order:stroke fill markers"/>
 <path d="m24 7a16 16 0 0 0-16 16 16 16 0 0 0 16 16 16 16 0 0 0 16-16 16 16 0 0 0-16-16zm-2 3.1641v10.836h-10.826a13 13 0 0 1 10.826-10.836zm4 0.0078a13 13 0 0 1 10.826 10.828h-10.826zm-14.83 14.828h10.83v10c0 0.30958 0.07469 0.59826 0.19922 0.85938a13 13 0 0 1-11.029-10.859zm14.83 0h10.826a13 13 0 0 1-11.025 10.859c0.12453-0.26111 0.19922-0.54979 0.19922-0.85938z" style="opacity:.2;paint-order:stroke fill markers;stroke-width:.92841"/>
 <path d="m24 6a16 16 0 0 0-16 16 16 16 0 0 0 16 16 16 16 0 0 0 16-16 16 16 0 0 0-16-16zm-2 3.1641v10.836h-10.826a13 13 0 0 1 10.826-10.836zm4 0.0078125a13 13 0 0 1 10.826 10.828h-10.826v-10.828zm-14.83 14.828h10.83v10c0 0.30958 0.074689 0.59826 0.19922 0.85938a13 13 0 0 1-11.029-10.859zm14.83 0h10.826a13 13 0 0 1-11.025 10.859c0.12453-0.26111 0.19922-0.54979 0.19922-0.85938v-10z" style="fill:#d1b04f;paint-order:stroke fill markers;stroke-width:.92841"/>
 <path d="m1 27v4c0 8.864 7.136 16 16 16h14c8.864 0 16-7.136 16-16v-4c0 8.864-7.136 16-16 16h-14c-8.864 0-16-7.136-16-16z" style="opacity:.2;paint-order:stroke fill markers;stroke-width:1.0455"/>
</svg>
