<svg id="SVGRoot" width="48px" height="48px" version="1.1" viewBox="0 0 48 48" xmlns="http://www.w3.org/2000/svg">
 <rect x="1" y="1" width="46" height="46" ry="16" style="fill:#efefef;paint-order:stroke fill markers;stroke-width:1.0455"/>
 <path d="m1 27v4c0 8.864 7.136 16 16 16h14c8.864 0 16-7.136 16-16v-4c0 8.864-7.136 16-16 16h-14c-8.864 0-16-7.136-16-16z" style="opacity:.2;paint-order:stroke fill markers;stroke-width:1.0455"/>
 <path d="m20 8-4.7773 8.7969h-0.019531l-6.2031 11.203 6 10h12l6-10-0.023438-0.044922 5.0234-8.9551-6-11h-12zm1.3555 3.5762 7.2207 0.15234-3.0332 5.377-6.9863-0.20898 2.7988-5.3203zm9.5605 1.2715 3.8633 6.457-3.5176 5.5-3.4023-6.2578 3.0566-5.6992zm-5.2891 6.4062 4.373 7.5254-8.4922-0.10156-4.2715-7.2715 8.3906-0.15234zm-10.395 1.8418 4.2422 7.0312-3.6914 6.3105-4.3145-7.0469 3.7637-6.2949zm6.1602 7.9219 8.209 0.10156-3.5703 6.5059-8.1621-0.072266 3.5234-6.5352z" style="opacity:.1"/>
 <path d="m15.203 15.797-6.2031 11.203 6 10h12l6-10-5.8984-10.848-11.898-0.35547zm10.424 2.457 4.373 7.5254-8.4922-0.10156-4.2715-7.2715 8.3906-0.15234zm-10.311 1.7012 4.3145 6.9043-3.8477 6.5781-4.3145-7.0469 3.8477-6.4355zm14.561 7.6602-3.8457 7.0098-8.1621-0.072266 3.7031-6.8672 8.3047-0.070313z" style="fill:#b1b4c9"/>
 <path d="m20 7-6 11.051 6 9.9492 12.305 0.15234 5.6953-10.152-6-11zm1.3555 3.5762 7.2207 0.15234-3.0402 5.3928 1.5656 0.03102 0.74254 1.4244 3.0719-5.729 3.8633 6.457-4.7793 7.4746-8.4922-0.10156-4.2715-7.2715z" style="fill:#0e64d6"/>
</svg>
