<svg id="SVGRoot" width="48px" height="48px" version="1.1" viewBox="0 0 48 48" xmlns="http://www.w3.org/2000/svg">
 <rect x="1" y="1" width="46" height="46" ry="16" style="fill:#eaee15;paint-order:stroke fill markers;stroke-width:1.0455"/>
 <path d="m9 13v3h5v19h3v-22h-8zm21 0c-6.0751 0-11 4.9249-11 11s4.9249 11 11 11h16.48c0.24785-0.96784 0.40544-1.9693 0.46875-3h-16.949c-4.4183 0-8-3.5817-8-8s3.5817-8 8-8 8 3.5817 8 8h3c0-6.0751-4.9249-11-11-11zm-24 5v3h3v14h3v-17h-6zm24 0c-3.3137 0-6 2.6863-6 6s2.6863 6 6 6h17v-3h-17c-1.6569 0-3-1.3431-3-3s1.3431-3 3-3 3 1.3431 3 3h3c0-3.3137-2.6863-6-6-6z" style="opacity:.1;paint-order:stroke fill markers"/>
 <path d="m9 12v3h5v19h3v-22h-8zm21 0c-6.0751 0-11 4.9249-11 11s4.9249 11 11 11h16.711c0.18322-0.9723 0.28906-1.9729 0.28906-3h-17c-4.4183 0-8-3.5817-8-8s3.5817-8 8-8 8 3.5817 8 8h3c0-6.0751-4.9249-11-11-11zm-24 5v3h3v14h3v-17h-6zm24 0c-3.3137 0-6 2.6863-6 6s2.6863 6 6 6h17v-3h-17c-1.6569 0-3-1.3431-3-3s1.3431-3 3-3 3 1.3431 3 3h3c0-3.3137-2.6863-6-6-6z" style="fill:#ec1313;paint-order:stroke fill markers"/>
 <path d="m1 27v4c0 8.864 7.136 16 16 16h14c8.864 0 16-7.136 16-16v-4c0 8.864-7.136 16-16 16h-14c-8.864 0-16-7.136-16-16z" style="opacity:.2;paint-order:stroke fill markers;stroke-width:1.0455"/>
</svg>
