<svg id="SVGRoot" width="48px" height="48px" version="1.1" viewBox="0 0 48 48" xmlns="http://www.w3.org/2000/svg">
 <defs>
  <linearGradient id="linearGradient893" x1="24" x2="24" y1="11" y2="33" gradientUnits="userSpaceOnUse">
   <stop style="stop-color:#096dd4" offset="0"/>
   <stop style="stop-color:#0aa8e6" offset="1"/>
  </linearGradient>
 </defs>
 <rect x="1" y="1" width="46" height="46" ry="16" style="fill:#b4b6ce;paint-order:stroke fill markers;stroke-width:1.0455"/>
 <path d="m1 27v4c0 8.864 7.136 16 16 16h14c8.864 0 16-7.136 16-16v-4c0 8.864-7.136 16-16 16h-14c-8.864 0-16-7.136-16-16z" style="opacity:.2;paint-order:stroke fill markers;stroke-width:1.0455"/>
 <rect x="1" y="17" width="46" height="11" style="fill:#cdd0d8;paint-order:stroke fill markers;stroke-width:.95743"/>
 <path d="m1 16v1h46v-1zm0 6v1h46v-1zm0 6v1h46v-1z" style="opacity:.3;paint-order:stroke fill markers"/>
 <path d="m1 21v1h46v-1zm0 2v1h46v-1z" style="fill:#fff;opacity:.3;paint-order:stroke fill markers"/>
 <path d="m24 7c-8.8366 0-16 7.1634-16 16s7.1634 16 16 16 16-7.1634 16-16-7.1634-16-16-16z" style="opacity:.2;paint-order:stroke fill markers;stroke-width:.92841"/>
 <path d="m24 6c-8.8366 0-16 7.1634-16 16s7.1634 16 16 16 16-7.1634 16-16-7.1634-16-16-16z" style="fill:#f9f9f9;paint-order:stroke fill markers;stroke-width:.92841"/>
 <path d="m24 6a16 16 0 0 0-16 16 16 16 0 0 0 16 16 16 16 0 0 0 16-16 16 16 0 0 0-16-16zm0 1a15 15 0 0 1 15 15 15 15 0 0 1-15 15 15 15 0 0 1-15-15 15 15 0 0 1 15-15z" style="opacity:.3;paint-order:stroke fill markers"/>
 <circle cx="24" cy="21" r="13" style="fill:#e9e9e9;paint-order:stroke fill markers"/>
 <circle cx="24" cy="22" r="12" style="fill:url(#linearGradient893);paint-order:stroke fill markers"/>
 <circle cx="24" cy="22" r="9" style="fill:#f9f9f9;paint-order:stroke fill markers"/>
 <circle cx="24" cy="22" r="5" style="fill:#d6d6d6;paint-order:stroke fill markers"/>
 <path d="m24 17a5 5 0 0 0-5 5 5 5 0 0 0 5 5 5 5 0 0 0 5-5 5 5 0 0 0-5-5zm0 1a4 4 0 0 1 4 4 4 4 0 0 1-4 4 4 4 0 0 1-4-4 4 4 0 0 1 4-4z" style="opacity:.2;paint-order:stroke fill markers"/>
 <path d="m23 15c-0.554 0-1 0.446-1 1v3l1 1-1 1v7c0 0.554 0.446 1 1 1h2c0.554 0 1-0.446 1-1v-3l-1-1 1-1v-7c0-0.554-0.446-1-1-1h-2z" style="fill:#2d2d2d;paint-order:stroke fill markers"/>
 <path d="m23 15c-0.554 0-1 0.446-1 1v1c0-0.554 0.446-1 1-1h2c0.554 0 1 0.446 1 1v-1c0-0.554-0.446-1-1-1zm0 5-1 1v1l1-1zm2 4v1l1 1v-1z" style="fill:#959595;paint-order:stroke fill markers"/>
 <path d="m24 10a12 12 0 0 0-12 12 12 12 0 0 0 12 12 12 12 0 0 0 12-12 12 12 0 0 0-12-12zm0 1a11 11 0 0 1 11 11 11 11 0 0 1-11 11 11 11 0 0 1-11-11 11 11 0 0 1 11-11z" style="opacity:.2;paint-order:stroke fill markers"/>
</svg>
