<svg id="SVGRoot" width="48px" height="48px" version="1.1" viewBox="0 0 48 48" xmlns="http://www.w3.org/2000/svg">
 <rect x="1" y="1" width="46" height="46" ry="16" style="fill:#51ec1f;paint-order:stroke fill markers;stroke-width:1.0455"/>
 <path d="m1 27v4c0 8.864 7.136 16 16 16h14c8.864 0 16-7.136 16-16v-4c0 8.864-7.136 16-16 16h-14c-8.864 0-16-7.136-16-16z" style="opacity:.2;paint-order:stroke fill markers;stroke-width:1.0455"/>
 <path d="m10 18c-3 0-4 2-4 4h2c0-1 1-2 2-2s2 1 2 2c0 2-6 2-6 5v2h8v-2h-6c0-2 6-2 6-5s-2.1144-4-4-4zm9 0c-2.216 0-4 1.784-4 4v3c0 2.216 1.784 4 4 4s4-1.784 4-4v-3c0-2.216-1.784-4-4-4zm10 0-4 7v2h4v2h2v-2h2v-2h-2v-7zm9 0a4 3.5 0 0 0-4 3.5 4 3.5 0 0 0 0.72266 1.998 4 3.5 0 0 0-0.72266 2.002 4 3.5 0 0 0 4 3.5 4 3.5 0 0 0 4-3.5 4 3.5 0 0 0-0.72266-1.998 4 3.5 0 0 0 0.72266-2.002 4 3.5 0 0 0-4-3.5zm-19 2c1.108 0 2 0.892 2 2v3c0 1.108-0.892 2-2 2s-2-0.892-2-2v-3c0-1.108 0.892-2 2-2zm18 0h2c0.554 0 1 0.446 1 1s-0.446 1-1 1h-2c-0.554 0-1-0.446-1-1s0.446-1 1-1zm-8 1.5v3.5h-2zm8 3.5h2c0.554 0 1 0.446 1 1s-0.446 1-1 1h-2c-0.554 0-1-0.446-1-1s0.446-1 1-1z" style="opacity:.2"/>
 <path d="m10 17c-3 0-4 2-4 4h2c0-1 1-2 2-2s2 1 2 2c0 2-6 2-6 5v2h8v-2h-6c0-2 6-2 6-5s-2.1144-4-4-4zm9 0c-2.216 0-4 1.784-4 4v3c0 2.216 1.784 4 4 4s4-1.784 4-4v-3c0-2.216-1.784-4-4-4zm10 0-4 7v2h4v2h2v-2h2v-2h-2v-7h-2zm9 0a4 3.5 0 0 0-4 3.5 4 3.5 0 0 0 0.72266 1.998 4 3.5 0 0 0-0.72266 2.002 4 3.5 0 0 0 4 3.5 4 3.5 0 0 0 4-3.5 4 3.5 0 0 0-0.72266-1.998 4 3.5 0 0 0 0.72266-2.002 4 3.5 0 0 0-4-3.5zm-19 2c1.108 0 2 0.892 2 2v3c0 1.108-0.892 2-2 2s-2-0.892-2-2v-3c0-1.108 0.892-2 2-2zm18 0h2c0.554 0 1 0.446 1 1s-0.446 1-1 1h-2c-0.554 0-1-0.446-1-1s0.446-1 1-1zm-8 1.5v3.5h-2l2-3.5zm8 3.5h2c0.554 0 1 0.446 1 1s-0.446 1-1 1h-2c-0.554 0-1-0.446-1-1s0.446-1 1-1z" style="fill:#fff"/>
</svg>
