<svg id="SVGRoot" width="48px" height="48px" version="1.1" viewBox="0 0 48 48" xmlns="http://www.w3.org/2000/svg">
 <rect x="1" y="1" width="46" height="46" ry="16" style="fill:#1456ad;paint-order:stroke fill markers;stroke-width:1.0455"/>
 <path d="m24 7a23 23 0 0 0-23 23 23 23 0 0 0 0.80664 6.0156c2.0964 6.3899 8.0846 10.984 15.193 10.984h14c7.0373 0 12.97-4.5053 15.123-10.795a23 23 0 0 0 0.87695-6.2051 23 23 0 0 0-23-23z" style="fill:#29b7e6;paint-order:stroke fill markers;stroke-width:1.0465"/>
 <path d="m1 27v4c0 8.864 7.136 16 16 16h14c8.864 0 16-7.136 16-16v-4c0 8.864-7.136 16-16 16h-14c-8.864 0-16-7.136-16-16z" style="opacity:.2;paint-order:stroke fill markers;stroke-width:1.0455"/>
 <path d="m17 2c-0.66748 0-1.3212 0.05224-1.9668 0.13086a9 11 0 0 0-0.033203 0.86914 9 11 0 0 0 9 11 9 11 0 0 0 9-11 9 11 0 0 0-0.035156-0.86914c-0.64495-0.078465-1.298-0.13086-1.9648-0.13086h-0.052734a7 9 0 0 1 0.052734 1 7 9 0 0 1-7 9 7 9 0 0 1-7-9 7 9 0 0 1 0.046875-1h-0.046875zm4.041 0a3 6 0 0 0 2.959 5 3 6 0 0 0 2.9531-5h-5.9121zm-5.041 14a3 6 0 0 0-3 6 3 6 0 0 0 3 6 3 6 0 0 0 3-6 3 6 0 0 0-3-6zm16 0a3 6 0 0 0-3 6 3 6 0 0 0 3 6 3 6 0 0 0 3-6 3 6 0 0 0-3-6zm8 12a4 2 0 0 0-4 2 4 2 0 0 0 4 2 4 2 0 0 0 4-2 4 2 0 0 0-4-2zm-32 1a4 2 0 0 0-4 2 4 2 0 0 0 4 2 4 2 0 0 0 4-2 4 2 0 0 0-4-2zm23 1v2h1s1 0 1 1-1 1-1 1h-17v2h18c1 0 2-1 2-3s-1-3-2-3h-2z" style="opacity:.1;paint-order:stroke fill markers"/>
 <path d="m17 1c-0.66748 0-1.3212 0.05224-1.9668 0.13086a9 11 0 0 0-0.033203 0.86914 9 11 0 0 0 9 11 9 11 0 0 0 9-11 9 11 0 0 0-0.035156-0.86914c-0.64495-0.078465-1.298-0.13086-1.9648-0.13086h-0.052734a7 9 0 0 1 0.052734 1 7 9 0 0 1-7 9 7 9 0 0 1-7-9 7 9 0 0 1 0.046875-1h-0.046875zm4.041 0a3 6 0 0 0 2.959 5 3 6 0 0 0 2.9531-5h-5.9121zm-5.041 14a3 6 0 0 0-3 6 3 6 0 0 0 3 6 3 6 0 0 0 3-6 3 6 0 0 0-3-6zm16 0a3 6 0 0 0-3 6 3 6 0 0 0 3 6 3 6 0 0 0 3-6 3 6 0 0 0-3-6zm-1 14v2h1s1 0 1 1-1 1-1 1h-17v2h18c1 0 2-1 2-3s-1-3-2-3h-2z" style="fill:#fff;paint-order:stroke fill markers"/>
 <path d="m40 27a4 2 0 0 0-4 2 4 2 0 0 0 4 2 4 2 0 0 0 4-2 4 2 0 0 0-4-2zm-32 1a4 2 0 0 0-4 2 4 2 0 0 0 4 2 4 2 0 0 0 4-2 4 2 0 0 0-4-2z" style="fill:#eca9c8;paint-order:stroke fill markers"/>
</svg>
