<svg id="SVGRoot" width="48px" height="48px" version="1.1" viewBox="0 0 48 48" xmlns="http://www.w3.org/2000/svg">
 <rect x="1" y="1" width="46" height="46" ry="16" style="fill:#b2d8de;paint-order:stroke fill markers;stroke-width:1.0455"/>
 <circle cx="24" cy="22" r="15" style="fill:#f9f9f9;paint-order:stroke fill markers"/>
 <path d="m24 7c-8.8366 0-16 7.1634-16 16s7.1634 16 16 16 16-7.1634 16-16-7.1634-16-16-16zm-9 9c2 0 2 2 2 2v14s0 1 1 1 1-1 1-1v-9s0-3 3-3 3 3 3 3v6s0 1 1 1 1-1 1-1v-1s0-2 2-2 2 2 2 2v3s0 1 1 1 1-1 1-1v-6.5s0-1.5 1.5-1.5 1.5 1.5 1.5 1.5v1.5s4.74e-4 0.56001 0.41992 0.8418c-1.6845 5.4455-6.7199 9.1584-12.42 9.1582-7.1797 0-13-5.8203-13-13 0.0036-0.78774 0.07877-1.5735 0.22461-2.3477 0.14446 0.18946 0.37935 0.34766 0.77539 0.34766 1 0 1-1 1-1v-2s0-2 2-2z" style="opacity:.1;paint-order:stroke fill markers;stroke-width:.92841"/>
 <path d="m24 6c-8.8366 0-16 7.1634-16 16s7.1634 16 16 16 16-7.1634 16-16-7.1634-16-16-16zm-9 9c2 0 2 2 2 2v14s0 1 1 1 1-1 1-1v-9s0-3 3-3 3 3 3 3v6s0 1 1 1 1-1 1-1v-1s0-2 2-2 2 2 2 2v3s0 1 1 1 1-1 1-1v-6.5s0-1.5 1.5-1.5 1.5 1.5 1.5 1.5v1.5s4.74e-4 0.56001 0.41992 0.8418c-1.6845 5.4455-6.7199 9.1584-12.42 9.1582-7.1797 0-13-5.8203-13-13 0.0036-0.78774 0.07877-1.5735 0.22461-2.3477 0.14446 0.18946 0.37935 0.34766 0.77539 0.34766 1 0 1-1 1-1v-2s0-2 2-2z" style="fill:#428e99;paint-order:stroke fill markers;stroke-width:.92841"/>
 <path d="m1 27v4c0 8.864 7.136 16 16 16h14c8.864 0 16-7.136 16-16v-4c0 8.864-7.136 16-16 16h-14c-8.864 0-16-7.136-16-16z" style="opacity:.2;paint-order:stroke fill markers;stroke-width:1.0455"/>
</svg>
