<svg id="SVGRoot" width="48px" height="48px" version="1.1" viewBox="0 0 48 48" xmlns="http://www.w3.org/2000/svg">
 <rect x="1" y="1" width="46" height="46" ry="16" style="fill:#bf3ae1;paint-order:stroke fill markers;stroke-width:1.0455"/>
 <path d="m16 7-4 7v2h5v5h2v-5h3v-2h-3v-3h-2v3h-3l4-7h-2zm14 0s1.992 1.5042 3.1641 4.498a5 5 0 0 0-2.1641-0.49805 5 5 0 0 0-5 5 5 5 0 0 0 5 5 5 5 0 0 0 5-5c0-6-4-9-4-9h-2zm1 6a3 3 0 0 1 2.9902 2.7754 3 3 0 0 1 0.001954 0.011718c0.00113 0.072343 0.007812 0.13965 0.007812 0.21289a3 3 0 0 1-3 3 3 3 0 0 1-3-3 3 3 0 0 1 3-3zm-15 12-3 3v3l3-3v9h-4v2h10v-2h-4v-12h-2zm15 0a5 5 0 0 0-5 5 5 5 0 0 0 5 5 5 5 0 0 0 2.1641-0.49805c-1.1721 2.9938-3.1641 4.498-3.1641 4.498h2s4-3 4-9a5 5 0 0 0-5-5zm0 2a3 3 0 0 1 3 3c0 0.073239-0.006682 0.14055-0.007812 0.21289a3 3 0 0 1-0.001954 0.011718 3 3 0 0 1-2.9902 2.7754 3 3 0 0 1-3-3 3 3 0 0 1 3-3z" style="opacity:.1"/>
 <path d="m1 27v4c0 8.864 7.136 16 16 16h14c8.864 0 16-7.136 16-16v-4c0 8.864-7.136 16-16 16h-14c-8.864 0-16-7.136-16-16z" style="opacity:.2;paint-order:stroke fill markers;stroke-width:1.0455"/>
 <path d="m16 6-4 7v2h5v5h2v-5h3v-2h-3v-3h-2v3h-3l4-7h-2z" style="fill:#e51a1a"/>
 <path d="m16 24-3 3v3l3-3v9h-4v2h10v-2h-4v-12z" style="fill:#e57e1a;paint-order:stroke fill markers"/>
 <path d="m30 6s1.992 1.5042 3.1641 4.498a5 5 0 0 0-2.1641-0.49805 5 5 0 0 0-5 5 5 5 0 0 0 5 5 5 5 0 0 0 5-5c0-6-4-9-4-9h-2zm1 6a3 3 0 0 1 2.9902 2.7754 3 3 0 0 1 0.001954 0.011718c0.001177 0.072345 0.007812 0.13965 0.007812 0.21289a3 3 0 0 1-3 3 3 3 0 0 1-3-3 3 3 0 0 1 3-3z" style="fill:#1a1ae5;paint-order:stroke fill markers"/>
 <path d="m30 38s1.992-1.5042 3.1641-4.498a5 5 0 0 1-2.1641 0.49805 5 5 0 0 1-5-5 5 5 0 0 1 5-5 5 5 0 0 1 5 5c0 6-4 9-4 9zm1-6a3 3 0 0 0 2.9902-2.7754 3 3 0 0 0 2e-3 -0.01172c0.001131-0.072343 0.007766-0.13965 0.007766-0.21289a3 3 0 0 0-3-3 3 3 0 0 0-3 3 3 3 0 0 0 3 3z" style="fill:#1ae526;paint-order:stroke fill markers"/>
</svg>
