<svg id="SVGRoot" width="48px" height="48px" version="1.1" viewBox="0 0 48 48" xmlns="http://www.w3.org/2000/svg">
 <rect x="1" y="1" width="46" height="46" ry="16" style="fill:#78da23;paint-order:stroke fill markers;stroke-width:1.0455"/>
 <path d="m28 12a9 9 0 0 0-8.1641 5.2383 5.5 6 0 0 0-3.3359-1.2383 5.5 6 0 0 0-4.8203 3.1133 8 8 0 0 0-6.6797 7.8867 8 8 0 0 0 8 8h23v-0.07227a8 8 0 0 0 7-7.9277 8 8 0 0 0-6.1875-7.7832 9 9 0 0 0-8.8125-7.2168z" style="opacity:.2;paint-order:stroke fill markers"/>
 <path d="m28 11a9 9 0 0 0-8.1641 5.2383 5.5 6 0 0 0-3.3359-1.2383 5.5 6 0 0 0-4.8203 3.1133 8 8 0 0 0-6.6797 7.8867 8 8 0 0 0 8 8h23v-0.07227a8 8 0 0 0 7-7.9277 8 8 0 0 0-6.1875-7.7832 9 9 0 0 0-8.8125-7.2168z" style="fill:#fff;paint-order:stroke fill markers"/>
 <rect x="15" y="24" width="18" height="5" ry="2" style="fill:#ccc;paint-order:stroke fill markers"/>
 <rect x="15" y="25" width="18" height="4" ry="2" style="fill:#2d2d2d;paint-order:stroke fill markers"/>
 <rect x="16" y="26" width="16" height="21" style="fill:#676767;paint-order:stroke fill markers"/>
 <path d="m17 26v2h2v-2h-2zm3 0v8h8v-8h-8zm9 0v2h2v-2h-2zm-12 3v2h2v-2h-2zm12 0v2h2v-2h-2zm-12 3v2h2v-2h-2zm12 0v2h2v-2h-2zm-12 3v2h2v-2h-2zm3 0v8h8v-8h-8zm9 0v2h2v-2h-2zm-12 3v2h2v-2h-2zm12 0v2h2v-2h-2zm-12 3v2h2v-2h-2zm12 0v2h2v-2h-2zm-12 3v2h2v-2h-2zm3 0v3h8v-3h-8zm9 0v2h2v-2h-2z" style="fill:#f9f9f9;paint-order:stroke fill markers"/>
 <path d="m1 27v4c0 8.864 7.136 16 16 16h14c8.864 0 16-7.136 16-16v-4c0 8.864-7.136 16-16 16h-14c-8.864 0-16-7.136-16-16z" style="opacity:.2;paint-order:stroke fill markers;stroke-width:1.0455"/>
 <rect x="16" y="26" width="16" height="1" style="opacity:.2;paint-order:stroke fill markers"/>
</svg>
