<svg id="SVGRoot" width="48px" height="48px" version="1.1" viewBox="0 0 48 48" xmlns="http://www.w3.org/2000/svg">
 <rect x="1" y="1" width="46" height="46" ry="16" style="fill:#2d2d2d;paint-order:stroke fill markers;stroke-width:1.0455"/>
 <path d="m33.906 1.2754a23 23 0 0 1 13.094 20.725v-5c0-0.89045-0.089972-1.7573-0.22852-2.6074-1.5392-4.6361-4.4455-8.636-8.25-11.523-1.4223-0.75578-2.9751-1.2947-4.6152-1.5938zm13.094 20.725a23 23 0 0 1-6.7168 16.223 1.5 1.5 0 0 0-0.7832-0.22266 1.5 1.5 0 0 0-1.5 1.5 1.5 1.5 0 0 0 0.14062 0.62695 23 23 0 0 1-14.141 4.873 23 23 0 0 1-23-23v6.8828c2.9456 9.9199 12.099 17.117 23 17.117 5.6273 0 10.785-1.9228 14.869-5.1426a1.5 1.5 0 0 0 0.63086 0.14258 1.5 1.5 0 0 0 1.5-1.5 1.5 1.5 0 0 0-0.074219-0.45703c2.8047-2.7854 4.9165-6.2647 6.0742-10.162v-6.8809zm-46 0a23 23 0 0 1 13.064-20.721c-1.6294 0.30021-3.172 0.83851-4.5859 1.5898-3.8045 2.8874-6.7108 6.8873-8.25 11.523-0.13854 0.85009-0.22852 1.717-0.22852 2.6074v5zm23-20c-11.08 0-20 8.92-20 20 0 4.2279 1.3053 8.136 3.5273 11.359a1.5 1.5 0 0 0-0.52734 1.1406 1.5 1.5 0 0 0 1.5 1.5 1.5 1.5 0 0 0 0.91797-0.31445c3.6437 3.8825 8.8127 6.3145 14.582 6.3145 11.08 0 20-8.92 20-20s-8.92-20-20-20zm0 1a19 19 0 0 1 19 19 19 19 0 0 1-19 19 19 19 0 0 1-14.027-6.2148 1.5 1.5 0 0 0 0.027344-0.28516 1.5 1.5 0 0 0-1.4609-1.498 19 19 0 0 1-3.5391-11.002 19 19 0 0 1 19-19z" style="fill:#4d4d4d;paint-order:stroke fill markers"/>
 <path d="m1 27v4c0 8.864 7.136 16 16 16h14c8.864 0 16-7.136 16-16v-4c0 8.864-7.136 16-16 16h-14c-8.864 0-16-7.136-16-16z" style="opacity:.2;paint-order:stroke fill markers;stroke-width:1.0455"/>
 <path d="m24 6c-8.8366 0-16 7.1634-16 16s7.1634 16 16 16 16-7.1634 16-16-7.1634-16-16-16z" style="fill:#d6d6d6;paint-order:stroke fill markers;stroke-width:.92841"/>
 <circle cx="24" cy="22" r="15" style="fill:#f9f9f9;paint-order:stroke fill markers"/>
 <path d="m17 17s-3 0-3 7v1c0 1.662 1.338 3 3 3s3-1.338 3-3v-1c0-1.662-1.338-3-3-3-0.70754 0-1.3475 0.2534-1.8594 0.66016 0.44303-3.6177 1.8594-3.6602 1.8594-3.6602h1v-1h-1zm9 0a3 3 0 0 0-3 3 3 3 0 0 0 1.3457 2.5 3 3 0 0 0-1.3457 2.5 3 3 0 0 0 3 3 3 3 0 0 0 3-3 3 3 0 0 0-1.3457-2.5 3 3 0 0 0 1.3457-2.5 3 3 0 0 0-3-3zm0 1a2 2 0 0 1 2 2 2 2 0 0 1-2 2 2 2 0 0 1-2-2 2 2 0 0 1 2-2zm-6 1v1h1v7h-1v1h3v-1h-1v-7-1h-2zm12 0c-1.108 0-2 0.892-2 2v5c0 1.108 0.892 2 2 2s2-0.892 2-2v-5c0-1.108-0.892-2-2-2zm0 1c0.554 0 1 0.446 1 1v5c0 0.554-0.446 1-1 1s-1-0.446-1-1v-5c0-0.554 0.446-1 1-1zm-15 2c1.108 0 2 0.892 2 2v1c0 1.108-0.892 2-2 2s-2-0.892-2-2v-1c0-1.108 0.892-2 2-2zm9 1a2 2 0 0 1 2 2 2 2 0 0 1-2 2 2 2 0 0 1-2-2 2 2 0 0 1 2-2z" style="fill:#2d2d2d;paint-order:stroke fill markers"/>
</svg>
