<svg id="SVGRoot" width="48px" height="48px" version="1.1" viewBox="0 0 48 48" xmlns="http://www.w3.org/2000/svg" xmlns:xlink="http://www.w3.org/1999/xlink">
 <defs>
  <linearGradient id="linearGradient888" x2="0" y1="47" y2="1" gradientUnits="userSpaceOnUse">
   <stop style="stop-color:#6b6b6a" offset="0"/>
   <stop style="stop-color:#373737" offset="1"/>
  </linearGradient>
 </defs>
 <rect x="1" y="1" width="46" height="46" ry="16" style="fill:url(#linearGradient888);paint-order:stroke fill markers;stroke-width:1.0455"/>
 <path d="m1 27v4c0 8.864 7.136 16 16 16h14c8.864 0 16-7.136 16-16v-4c0 8.864-7.136 16-16 16h-14c-8.864 0-16-7.136-16-16z" style="opacity:.2;paint-order:stroke fill markers;stroke-width:1.0455"/>
 <path d="m13 5 2 6h12l-1 2-1 5 4-4-1 4-3 1-1 2 1-1-3 6-1 1-1 3 1 1-2 4 1-1-1 4 4-6-5 10 3-3v1l5-9-1-2h1.6055l1.3945-3v-2h1l1-3v-2l2-3 5-11zm11 9-1 3 2-2zm6 10-1 1-1 2 1-1zm-2 4-1 2h1zm-9 2-2 2v2z" style="opacity:.2"/>
 <path d="m13 4 2 6h12l-1 2-1 5 4-4-1 4-3 1-1 2 1-1-3 6-1 1-1 3 1 1-2 4 1-1-1 4 4-6-5 10 3-3v1l5-9-1-2h1.6055l1.3945-3v-2h1l1-3v-2l2-3 5-11h-24zm11 9-1 3 2-2-1-1zm6 10-1 1-1 2 1-1 1-2zm-2 4-1 2h1v-2zm-9 2-2 2v2l2-4z" style="fill:#f41202"/>
</svg>
