<svg id="SVGRoot" width="48px" height="48px" version="1.1" viewBox="0 0 48 48" xmlns="http://www.w3.org/2000/svg">
 <rect x="1" y="1" width="46" height="46" ry="16" style="fill:#243036;paint-order:stroke fill markers;stroke-width:1.0455"/>
 <path d="m1 27v4c0 8.864 7.136 16 16 16h14c8.864 0 16-7.136 16-16v-4c0 8.864-7.136 16-16 16h-14c-8.864 0-16-7.136-16-16z" style="opacity:.2;paint-order:stroke fill markers;stroke-width:1.0455"/>
 <path d="m23.977 10.005c-0.39537 9e-3 -0.7483 0.25017-0.90039 0.61523l-5.6641 13.594-4.7715-3.9766c-0.18129-0.15138-0.4103-0.23372-0.64648-0.23242-0.6059 0.0035-1.0695 0.54072-0.98438 1.1406l2 14c0.0013 0.0088 0.0044 0.01666 0.0059 0.02539 0.0074 0.04317 0.02021 0.08373 0.0332 0.125 0.01377 0.04516 0.02934 0.08913 0.04883 0.13086 0.0163 0.03409 0.03475 0.06571 0.05469 0.09766 0.01746 0.02846 0.03854 0.05181 0.05859 0.07813 0.08068 0.10531 0.1743 0.20033 0.28906 0.26758 0.11511 0.06745 0.24612 0.10483 0.38281 0.12109 0.03711 0.0045 0.07353 0.0076 0.11133 0.0078 0.03639 9.6e-5 0.0723 0.0022 0.10938-2e-3 0.08965-0.0094 0.17876-0.02894 0.26758-0.06445l9.6289-3.8516 9.6289 3.8516c0.08894 0.03556 0.17976 0.05509 0.26953 0.06445 0.03716 0.0041 0.0729 0.0021 0.10937 2e-3 0.03667-2.99e-4 0.07141-0.0035 0.10742-0.0078 0.13768-0.016 0.26891-0.05321 0.38477-0.12109 4.46e-4 -2.61e-4 0.0015 2.62e-4 2e-3 0 0.0032-0.0018 0.0046-0.0059 0.0078-0.0078 0.10828-0.06526 0.198-0.15431 0.27539-0.25391 0.02344-0.03022 0.04838-0.05674 0.06836-0.08984 0.01781-0.02906 0.03205-0.05903 0.04687-0.08984 0.02001-0.04253 0.03672-0.0867 0.05078-0.13281 0.01299-0.04127 0.02576-0.08183 0.0332-0.125 0.0015-0.0087 0.0046-0.01656 0.0059-0.02539l2-14c0.12838-0.90652-0.9278-1.4947-1.6309-0.9082l-4.7715 3.9766-5.6641-13.594c-0.15864-0.38082-0.53484-0.62516-0.94727-0.61523z" style="color-rendering:auto;color:#000000;dominant-baseline:auto;font-feature-settings:normal;font-variant-alternates:normal;font-variant-caps:normal;font-variant-ligatures:normal;font-variant-numeric:normal;font-variant-position:normal;image-rendering:auto;isolation:auto;mix-blend-mode:normal;opacity:.1;paint-order:stroke fill markers;shape-padding:0;shape-rendering:auto;solid-color:#000000;text-decoration-color:#000000;text-decoration-line:none;text-decoration-style:solid;text-indent:0;text-orientation:mixed;text-transform:none;white-space:normal"/>
 <path d="m23.977 9c-0.39537 9e-3 -0.7483 0.25017-0.90039 0.61523l-10 24c-0.34005 0.8179 0.47251 1.6415 1.2949 1.3125l9.6289-3.8516 9.6289 3.8516c0.82241 0.32899 1.635-0.4946 1.2949-1.3125l-10-24c-0.15864-0.38082-0.53484-0.62516-0.94727-0.61523z" style="color-rendering:auto;color:#000000;dominant-baseline:auto;fill:#7dff53;font-feature-settings:normal;font-variant-alternates:normal;font-variant-caps:normal;font-variant-ligatures:normal;font-variant-numeric:normal;font-variant-position:normal;image-rendering:auto;isolation:auto;mix-blend-mode:normal;paint-order:stroke fill markers;shape-padding:0;shape-rendering:auto;solid-color:#000000;text-decoration-color:#000000;text-decoration-line:none;text-decoration-style:solid;text-indent:0;text-orientation:mixed;text-transform:none;white-space:normal"/>
 <path d="m14 34 10-24 10 24-10-4z" style="fill:#3aee00;paint-order:stroke fill markers"/>
 <path d="m11.994 19c-0.6059 0.0035-1.0695 0.54072-0.98438 1.1406l2 14c0.09168 0.6414 0.75972 1.0276 1.3613 0.78711l9.6289-3.8516 9.6289 3.8516c0.60161 0.24054 1.2696-0.14571 1.3613-0.78711l2-14c0.12838-0.90652-0.9278-1.4947-1.6309-0.9082l-11.359 9.4668-11.359-9.4668c-0.18129-0.15138-0.4103-0.23372-0.64648-0.23242z" style="color-rendering:auto;color:#000000;dominant-baseline:auto;fill:#23d3ff;font-feature-settings:normal;font-variant-alternates:normal;font-variant-caps:normal;font-variant-ligatures:normal;font-variant-numeric:normal;font-variant-position:normal;image-rendering:auto;isolation:auto;mix-blend-mode:normal;paint-order:stroke fill markers;shape-padding:0;shape-rendering:auto;solid-color:#000000;text-decoration-color:#000000;text-decoration-line:none;text-decoration-style:solid;text-indent:0;text-orientation:mixed;text-transform:none;white-space:normal"/>
 <path d="m12 20 2 14 10-4zm12 10 10 4 2-14z" style="fill:#008bee;paint-order:stroke fill markers"/>
 <path d="m17.01 24.174-3.2871 7.8887 0.27734 1.9375 10-4-6.9902-5.8262zm6.9902 5.8262 10 4 0.27734-1.9375-3.2871-7.8887-6.9902 5.8262z" style="color-rendering:auto;color:#000000;dominant-baseline:auto;fill:#39dc84;font-feature-settings:normal;font-variant-alternates:normal;font-variant-caps:normal;font-variant-ligatures:normal;font-variant-numeric:normal;font-variant-position:normal;image-rendering:auto;isolation:auto;mix-blend-mode:normal;paint-order:stroke fill markers;shape-padding:0;shape-rendering:auto;solid-color:#000000;text-decoration-color:#000000;text-decoration-line:none;text-decoration-style:solid;text-indent:0;text-orientation:mixed;text-transform:none;white-space:normal"/>
 <path d="m17.814 24.846-3.8145 9.1543 10-4zm6.1855 5.1543 10 4-3.8145-9.1543z" style="fill:#00cf8c;paint-order:stroke fill markers"/>
 <path d="m18 3c-8.31 0-15 6.69-15 15v8c0 8.31 6.69 15 15 15h12c8.31 0 15-6.69 15-15v-8c0-8.31-6.69-15-15-15h-12zm-1 2h14c6.648 0 12 5.352 12 12v10c0 6.648-5.352 12-12 12h-14c-6.648 0-12-5.352-12-12v-10c0-6.648 5.352-12 12-12z" style="fill:#266382;paint-order:stroke fill markers"/>
</svg>
