<?xml version="1.0" encoding="UTF-8" standalone="no"?>
<svg
   xmlns:dc="http://purl.org/dc/elements/1.1/"
   xmlns:cc="http://creativecommons.org/ns#"
   xmlns:rdf="http://www.w3.org/1999/02/22-rdf-syntax-ns#"
   xmlns:svg="http://www.w3.org/2000/svg"
   xmlns="http://www.w3.org/2000/svg"
   xmlns:sodipodi="http://sodipodi.sourceforge.net/DTD/sodipodi-0.dtd"
   xmlns:inkscape="http://www.inkscape.org/namespaces/inkscape"
   id="SVGRoot"
   width="48px"
   height="48px"
   version="1.1"
   viewBox="0 0 48 48"
   sodipodi:docname="aarddict.svg"
   inkscape:version="0.92.5 (2060ec1f9f, 2020-04-08)">
  <metadata
     id="metadata17">
    <rdf:RDF>
      <cc:Work
         rdf:about="">
        <dc:format>image/svg+xml</dc:format>
        <dc:type
           rdf:resource="http://purl.org/dc/dcmitype/StillImage" />
        <dc:title></dc:title>
      </cc:Work>
    </rdf:RDF>
  </metadata>
  <defs
     id="defs15" />
  <sodipodi:namedview
     pagecolor="#ffffff"
     bordercolor="#666666"
     borderopacity="1"
     objecttolerance="10"
     gridtolerance="10"
     guidetolerance="10"
     inkscape:pageopacity="0"
     inkscape:pageshadow="2"
     inkscape:window-width="1148"
     inkscape:window-height="742"
     id="namedview13"
     showgrid="true"
     showguides="true"
     inkscape:guide-bbox="true"
     inkscape:zoom="13.906433"
     inkscape:cx="25.958926"
     inkscape:cy="26.40766"
     inkscape:window-x="0"
     inkscape:window-y="32"
     inkscape:window-maximized="1"
     inkscape:current-layer="SVGRoot">
    <inkscape:grid
       type="xygrid"
       id="grid824" />
  </sodipodi:namedview>
  <rect
     x="1"
     y="1"
     width="46"
     height="46"
     ry="16"
     style="fill:#156388;paint-order:stroke fill markers;stroke-width:1.0455;fill-opacity:1"
     id="rect2" />
  <path
     style="fill-opacity:1;opacity:0.2"
     d="M 17 2 C 11.221883 2 6.1924511 5.0428142 3.3808594 9.609375 L 4 11 L 8 14 L 10 19 L 11 20.333984 L 11 24.666016 L 7 28 L 11 31.333984 L 11 35 L 11 38 C 11 39 12 39 12 39 L 12.142578 39 L 12 40 L 14 40 L 14.833984 39 L 34 39 L 37 39 L 37 38 L 37 35 L 37 34.800781 L 39 32 L 37 27.333984 L 37 23.666016 L 39 23 L 37 21 L 44 25 L 43 30 L 46.876953 32.908203 C 46.950921 32.281586 47 31.647142 47 31 L 47 18 C 47 13.193334 44.89105 8.9065865 41.556641 5.9785156 L 37 7.6367188 L 37 6 L 21.400391 6 L 25 3 L 30 2 L 17 2 z M 30 2 L 34 3 L 35.949219 2.7832031 C 34.390797 2.279565 32.730351 2 31 2 L 30 2 z M 18 5 L 18.333984 6 L 16.5 6 L 18 5 z "
     id="path843-9" />
  <path
     style="fill:#86c25f;fill-opacity:1"
     d="M 17 1 C 11.221883 1 6.1924511 4.0428142 3.3808594 8.609375 L 4 10 L 8 13 L 10 18 L 13 22 L 7 27 L 13 32 L 12 39 L 14 39 L 19 33 L 22 28 L 17 25 L 15 21 L 15 19 L 18 16 L 20 18 L 21 17 L 20 15 L 22 12 L 24 11 L 21 8 L 18 10 L 17 9 L 15 6 L 18 4 L 19 7 L 25 2 L 30 1 L 17 1 z M 30 1 L 34 2 L 35.949219 1.7832031 C 34.390797 1.279565 32.730351 1 31 1 L 30 1 z M 41.556641 4.9785156 L 36 7 L 25 12 L 26 16 L 29 15 L 29 17 L 26 19 L 28 22 L 26 27 L 32 31 L 30 37 L 34 38 L 39 31 L 36 24 L 32 20 L 37 22 L 36 23 L 39 22 L 37 20 L 44 24 L 43 29 L 46.951172 31.962891 C 46.97011 31.642651 47 31.325157 47 31 L 47 17 C 47 12.193334 44.89105 7.9065865 41.556641 4.9785156 z M 15 41 L 10 44 L 8.609375 44.619141 C 11.048209 46.12071 13.914117 47 17 47 L 31 47 C 34.243706 47 37.249739 46.036819 39.765625 44.390625 L 31 42 L 19 45 L 15 41 z "
     id="path843" />
  <path
     d="m1 27v4c0 8.864 7.136 16 16 16h14c8.864 0 16-7.136 16-16v-4c0 8.864-7.136 16-16 16h-14c-8.864 0-16-7.136-16-16z"
     style="opacity:.2;paint-order:stroke fill markers;stroke-width:1.0455"
     id="path4" />
  <rect
     style="opacity:1;vector-effect:none;fill:#a01d61;fill-opacity:1;paint-order:stroke fill markers"
     id="rect841"
     width="3"
     height="6"
     x="34"
     y="32" />
  <rect
     style="opacity:1;vector-effect:none;fill:#f9f9f9;fill-opacity:1;stroke-width:1;paint-order:stroke fill markers"
     id="rect830"
     width="24"
     height="3"
     x="12"
     y="34" />
  <path
     style="opacity:0.1;vector-effect:none;fill-opacity:1;paint-order:stroke fill markers"
     d="m 12,34 v 1 h 24 v -1 z m 0,2 v 1 h 24 v -1 z"
     id="rect866"
     inkscape:connector-curvature="0" />
  <path
     style="fill:#ec4b4b;fill-opacity:1"
     d="m 13,5 c -1,0 -2,1 -2,2 0,8 0,27 0,27 H 37 V 5 Z"
     id="path828"
     inkscape:connector-curvature="0"
     sodipodi:nodetypes="sccccs" />
  <path
     style="opacity:1;vector-effect:none;fill:#d92a4a;fill-opacity:1;paint-order:stroke fill markers"
     d="m 11,34 v 3 c 0,1 1,1 1,1 H 37 V 37 H 13 c -1,0 -1,-1 -1,-1 v -1 c 0,0 0,-1 1,-1 h 24 v -1 c 0,0 -16.666667,0 -25,0 -1,0 -1,1 -1,1 z"
     id="rect871"
     inkscape:connector-curvature="0"
     sodipodi:nodetypes="cscccsccsccsc" />
  <path
     style="opacity:0.2;vector-effect:none;fill-opacity:1;stroke-width:1.41421354;paint-order:stroke fill markers"
     d="M 12.142578 38 L 12 39 L 14 39 L 14.833984 38 L 12.142578 38 z "
     id="rect1027" />
  <path
     style="fill:#f9f9f9;fill-opacity:1"
     d="m 20,13 -5,12 h 2 l 1.125,-3 h 3.75 L 23,25 h 2 z m 0,4 1.125,3 h -2.25 z m 9,0 a 4,4 0 0 0 -4,4 4,4 0 0 0 4,4 4,4 0 0 0 2,-0.541016 V 25 h 2 v -4 -4 h -2 v 0.541016 A 4,4 0 0 0 29,17 Z m 0,2 a 2,2 0 0 1 2,2 2,2 0 0 1 -2,2 2,2 0 0 1 -2,-2 2,2 0 0 1 2,-2 z"
     id="path1050"
     inkscape:connector-curvature="0" />
</svg>
