<svg id="SVGRoot" width="48px" height="48px" version="1.1" viewBox="0 0 48 48" xmlns="http://www.w3.org/2000/svg">
 <rect x="1" y="1" width="46" height="46" ry="16" style="fill:#2d2d2d;paint-order:stroke fill markers;stroke-width:1.0455"/>
 <path d="m1 27v4c0 8.864 7.136 16 16 16h14c8.864 0 16-7.136 16-16v-4c0 8.864-7.136 16-16 16h-14c-8.864 0-16-7.136-16-16z" style="opacity:.2;paint-order:stroke fill markers;stroke-width:1.0455"/>
 <path d="m16 9 4 4v6h-6l-4-4v16l4-4h6v6l-4 4h16l-4-4v-6h6l4 4v-16l-4 4h-6v-6l4-4z" style="opacity:.2;paint-order:stroke fill markers;stroke-linecap:round;stroke-linejoin:round;stroke-width:2"/>
 <path d="m16 8 4 4v6h-6l-4-4v16l4-4h6v6l-4 4h16l-4-4v-6h6l4 4v-16l-4 4h-6v-6l4-4h-16z" style="fill:#ecdb1f;paint-order:stroke fill markers;stroke-linecap:round;stroke-linejoin:round;stroke-width:2"/>
</svg>
