<svg id="SVGRoot" width="48px" height="48px" version="1.1" viewBox="0 0 48 48" xmlns="http://www.w3.org/2000/svg">
 <rect x="1" y="1" width="46" height="46" ry="16" style="fill:#5e2a1c;paint-order:stroke fill markers;stroke-width:1.0455"/>
 <path d="m23 6a9 8 0 0 0-9 8c-1.108 0-2 0.892-2 2s0.892 2 2 2h2v7c0 1 2 3 3 3h-2c-1.662 0-3 1.338-3 3v6c0 1.662 1.338 3 3 3l2.666 1.334-2.666 2.666v3h5v-3l1-1 2 1v3h6v-3l-5-4h3c1.662 0 3-1.338 3-3v-1.1992l7-2.8008-0.375-0.46875 3.375-2.5312-1-1-2 1 2-2-1-1-2 2 2-3-1-1-2 4v-2l-1-1-0.61914 2.4766-0.38086-0.47656-3.1133 2.2246c-0.342-1.2809-1.4951-2.2246-2.8867-2.2246h-1c1 0 1-4 1-4h3l-3-6h3c1.108 0 2-0.892 2-2s-0.892-2-2-2a9 8 0 0 0-9-8z" style="opacity:.2"/>
 <path d="m21 39-4 4v4h5v-4l4-4z" style="fill:#193b94"/>
 <path d="m17 39 8 4v4h6v-4l-5-4z" style="fill:#253bda"/>
 <path d="m1 27v4c0 8.864 7.136 16 16 16h14c8.864 0 16-7.136 16-16v-4c0 8.864-7.136 16-16 16h-14c-8.864 0-16-7.136-16-16z" style="opacity:.2;paint-order:stroke fill markers;stroke-width:1.0455"/>
 <path d="m24 16-1.5996 0.19922-5.4004 1.8008v6l2 3h9c1 0 1-4 1-4h3l-3-6z" style="fill:#f9c2bf"/>
 <path d="m23.111 16.111-7.1113 0.88867v7c0 1 2 3 3 3l2-4s-3-0.79815-3-2c0-1 0.25464-2 1-2 2 0 4 1 4 1l1-3z" style="fill:#752512"/>
 <path d="m23 5a9 8 0 0 0-9 8 9 8 0 0 0 0.29297 2h17.41a9 8 0 0 0 0.29688-2 9 8 0 0 0-9-8z" style="fill:#eab036;paint-order:stroke fill markers;stroke-linecap:round;stroke-linejoin:round;stroke-width:2"/>
 <rect x="12" y="13" width="22" height="4" ry="2" style="fill:#eebe59;paint-order:stroke fill markers;stroke-linecap:round;stroke-linejoin:round;stroke-width:2"/>
 <rect x="14" y="27" width="18" height="12" ry="3" style="fill:#e61919;paint-order:stroke fill markers"/>
 <path d="m35 29 1-4 1 1v2l2-4 1 1-2 3 2-2 1 1-2 2 2-1 1 1-4 3z" style="fill:#f9c2bf"/>
 <path d="m35 27-7 5-1.1836-1.1836a4 4 0 0 0-3.8164-2.8164 4 4 0 0 0-4 4 4 4 0 0 0 4 4h6l10-4z" style="fill:#e83232;paint-order:stroke fill markers"/>
 <circle cx="26" cy="20" r="1" style="fill:#1e60e1;paint-order:stroke fill markers"/>
 <path d="m29 23-4 2 4-1z" style="opacity:.2"/>
 <path d="m27 25 1.7207 0.86133c0.063232-0.27266 0.11686-0.56179 0.1543-0.86133z" style="fill:#2d2d2d"/>
</svg>
