<svg id="SVGRoot" width="48px" height="48px" version="1.1" viewBox="0 0 48 48" xmlns="http://www.w3.org/2000/svg">
 <rect x="1" y="1" width="46" height="46" ry="16" style="fill:#4778ae;paint-order:stroke fill markers;stroke-width:1.0455"/>
 <path d="m17 1c-5.7781 0-10.808 3.0428-13.619 7.6094l0.61914 1.3906 4 3 2 5 3 4-6 5 6 5-1 7h2l5-6 3-5-5-3-2-4v-2l3-3 2 2 1-1-1-2 2-3 2-1-3-3-3 2-1-1-2-3 3-2 1 3 6-5 5-1h-13zm13 0 4 1 1.9492-0.2168c-1.5584-0.50364-3.2189-0.7832-4.9492-0.7832h-1zm11.557 3.9785-5.5566 2.0215-11 5 1 4 3-1v2l-3 2 2 3-2 5 6 4-2 6 4 1 5-7-3-7-4-4 5 2-1 1 3-1-2-2 7 4-1 5 3.9512 2.9629c0.018938-0.32024 0.048828-0.63773 0.048828-0.96289v-14c0-4.8067-2.109-9.0934-5.4434-12.021zm-26.557 36.021-5 3-1.3906 0.61914c2.4388 1.5016 5.3047 2.3809 8.3906 2.3809h14c3.2437 0 6.2497-0.96318 8.7656-2.6094l-8.7656-2.3906-12 3-4-4z" style="fill:#316093"/>
 <path d="m27 2a15 15 0 0 0-15 15 15 15 0 0 0 15 15 15 15 0 0 0 15-15 15 15 0 0 0-15-15zm0 1a14 14 0 0 1 14 14 14 14 0 0 1-14 14 14 14 0 0 1-14-14 14 14 0 0 1 14-14z" style="fill:#fff;opacity:.1;paint-order:stroke fill markers"/>
 <path d="m27 5a12 12 0 0 0-12 12 12 12 0 0 0 12 12 12 12 0 0 0 12-12 12 12 0 0 0-12-12zm0 2a10 10 0 0 1 10 10 10 10 0 0 1-10 10 10 10 0 0 1-10-10 10 10 0 0 1 10-10z" style="fill:#fff;opacity:.2;paint-order:stroke fill markers;stroke-width:1.0909"/>
 <path d="m1 27v4c0 8.864 7.136 16 16 16h14c8.864 0 16-7.136 16-16v-4c0 8.864-7.136 16-16 16h-14c-8.864 0-16-7.136-16-16z" style="opacity:.2;paint-order:stroke fill markers;stroke-width:1.0455"/>
 <path d="m27 10a7 7 0 0 0-7 7 7 7 0 0 0 7 7 7 7 0 0 0 7-7 7 7 0 0 0-7-7zm0 4a3 3 0 0 1 3 3 3 3 0 0 1-3 3 3 3 0 0 1-3-3 3 3 0 0 1 3-3z" style="fill:#fff;opacity:.3;paint-order:stroke fill markers"/>
 <circle cx="27" cy="17" r="0" style="fill:#fff;opacity:.2;paint-order:stroke fill markers"/>
 <path d="m27 18-4 21-4-6s-2.2876 2.8595-3.7876 4.3595c-0.99664 1.1405-1.9966 1.4966-3.2124 0.64045-1.1563-0.8143-1.2876-1.8905-0.28764-3.6405s3.2876-4.3595 3.2876-4.3595l-7-2z" style="opacity:.2"/>
 <path d="m27 17-4 21-4-6s-2.2876 2.8595-3.7876 4.3595c-0.99664 1.1405-1.9966 1.4966-3.2124 0.64045-1.1563-0.8143-1.2876-1.8905-0.28764-3.6405s3.2876-4.3595 3.2876-4.3595l-7-2z" style="fill:#fff"/>
</svg>
