<svg id="SVGRoot" width="48px" height="48px" version="1.1" viewBox="0 0 48 48" xmlns="http://www.w3.org/2000/svg">
 <rect x="1" y="1" width="46" height="46" ry="16" style="fill:#9c6528;paint-order:stroke fill markers;stroke-width:1.0455"/>
 <path d="m13 6c-1 0-2 1-2 2v30c0 1 1 1 1 1h25v-33z" style="opacity:.2;paint-order:stroke fill markers"/>
 <path d="m1 27v4c0 8.864 7.136 16 16 16h14c8.864 0 16-7.136 16-16v-4c0 8.864-7.136 16-16 16h-14c-8.864 0-16-7.136-16-16z" style="opacity:.2;paint-order:stroke fill markers;stroke-width:1.0455"/>
 <rect x="34" y="32" width="3" height="6" style="fill:#185c63;paint-order:stroke fill markers"/>
 <rect x="12" y="34" width="24" height="3" style="fill:#f9f9f9;paint-order:stroke fill markers"/>
 <path d="m12 34v1h24v-1zm0 2v1h24v-1z" style="opacity:.1;paint-order:stroke fill markers"/>
 <path d="m13 5c-1 0-2 1-2 2v27h26v-29z" style="fill:#33ceaf"/>
 <path d="m11 34v3c0 1 1 1 1 1h25v-1h-24c-1 0-1-1-1-1v-1s0-1 1-1h24v-1h-25c-1 0-1 1-1 1z" style="fill:#27a36f;paint-order:stroke fill markers"/>
 <path d="m13 5c-1 0-2 1-2 2v27 3c0 1 1 1 1 1h4v-1h-3c-1 0-1-1-1-1v-1s0-1 1-1h3v-29h-3z" style="opacity:.2;paint-order:stroke fill markers"/>
 <path d="m28 6v16l3-3 3 3v-16z" style="opacity:.2;paint-order:stroke fill markers"/>
 <path d="m28 5v16l3-3 3 3v-16z" style="fill:#f9f9f9;paint-order:stroke fill markers"/>
 <rect x="28" y="5" width="6" height="1" style="opacity:.1;paint-order:stroke fill markers"/>
</svg>
