<svg id="SVGRoot" width="48px" height="48px" version="1.1" viewBox="0 0 48 48" xmlns="http://www.w3.org/2000/svg">
 <rect x="1" y="1" width="46" height="46" ry="16" style="fill:#806e62;paint-order:stroke fill markers;stroke-width:1.0455"/>
 <path d="m24 21v26h7c8.864 0 16-7.136 16-16v-10h-23z" style="fill:#f48011;paint-order:stroke fill markers;stroke-width:1.0455"/>
 <path d="m13 7v4h-4v4h4v4h4v-4h4v-4h-4v-4zm15 4v4h12v-4zm-16 16-3 3 3 3-3 3 3 3 3-3 3 3 3-3-3-3 3-3-3-3-3 3zm16 1v4h12v-4zm0 6v4h12v-4z" style="fill:#fff;opacity:.2;paint-order:stroke fill markers"/>
 <path d="m1 27v4c0 8.864 7.136 16 16 16h14c8.864 0 16-7.136 16-16v-4c0 8.864-7.136 16-16 16h-14c-8.864 0-16-7.136-16-16z" style="opacity:.2;paint-order:stroke fill markers;stroke-width:1.0455"/>
 <rect x="24" y="1" width="1" height="46" style="opacity:.3;paint-order:stroke fill markers"/>
 <rect x="1" y="20" width="46" height="1" style="opacity:.3;paint-order:stroke fill markers"/>
 <rect x="1" y="21" width="46" height="1" style="fill:#fff;opacity:.3;paint-order:stroke fill markers"/>
 <path d="m13 5v4h-4v4h4v4h4v-4h4v-4h-4v-4zm15 4v4h12v-4zm-16 16-3 3 3 3-3 3 3 3 3-3 3 3 3-3-3-3 3-3-3-3-3 3zm16 1v4h12v-4zm0 6v4h12v-4z" style="opacity:.2;paint-order:stroke fill markers"/>
 <path d="m13 6v4h-4v4h4v4h4v-4h4v-4h-4v-4z" style="fill:#fff;paint-order:stroke fill markers"/>
 <rect x="28" y="10" width="12" height="4" style="fill:#fff;paint-order:stroke fill markers"/>
 <path d="m12 26-3 3 3 3-3 3 3 3 3-3 3 3 3-3-3-3 3-3-3-3-3 3z" style="fill:#fff"/>
 <path d="m28 27v4h12v-4zm0 6v4h12v-4z" style="fill:#fff;paint-order:stroke fill markers"/>
</svg>
