<svg id="SVGRoot" width="48px" height="48px" version="1.1" viewBox="0 0 48 48" xmlns="http://www.w3.org/2000/svg">
 <rect x="1" y="1" width="46" height="46" ry="16" style="fill:#e99373;paint-order:stroke fill markers;stroke-width:1.0455"/>
 <path d="m14 12c-1.662 0-3 1.338-3 3v2.5c0-0.831-0.669-1.5-1.5-1.5s-1.5 0.669-1.5 1.5v11c0 0.831 0.669 1.5 1.5 1.5s1.5-0.669 1.5-1.5v2.5c0 1.662 1.338 3 3 3s3-1.338 3-3v-6h15v6c0 1.662 1.338 3 3 3s3-1.338 3-3v-2.6152c0 0.89492 0.669 1.6152 1.5 1.6152s1.5-0.72031 1.5-1.6152v-10.77c0-0.89492-0.669-1.6152-1.5-1.6152s-1.5 0.72031-1.5 1.6152v-2.6152c0-1.662-1.338-3-3-3s-3 1.338-3 3v6h-15v-6c0-1.662-1.338-3-3-3z" style="opacity:.2;paint-order:stroke fill markers"/>
 <path d="m1 27v4c0 8.864 7.136 16 16 16h14c8.864 0 16-7.136 16-16v-4c0 8.864-7.136 16-16 16h-14c-8.864 0-16-7.136-16-16z" style="opacity:.2;paint-order:stroke fill markers;stroke-width:1.0455"/>
 <rect x="14" y="20" width="21" height="4" ry="1.6154" style="fill:#2a5db4;paint-order:stroke fill markers"/>
 <rect x="16" y="21" width="17" height="1" ry=".5" style="fill:#447ad4;paint-order:stroke fill markers"/>
 <rect x="11" y="11" width="6" height="22" ry="3" style="fill:#d12f2f;paint-order:stroke fill markers"/>
 <rect x="32" y="11" width="6" height="22" ry="3" style="fill:#d12f2f;paint-order:stroke fill markers"/>
 <rect x="8" y="15" width="3" height="14" ry="1.5" style="fill:#b62828;paint-order:stroke fill markers"/>
 <rect x="38" y="15" width="3" height="14" ry="1.6154" style="fill:#b62828;paint-order:stroke fill markers;stroke-width:1.0377"/>
 <path d="m14 13c-1.662 0-3 1.338-3 3v1c0 0.17159 0.02337 0.33644 0.05078 0.5 0.23806-1.4207 1.4588-2.5 2.9492-2.5s2.7112 1.0793 2.9492 2.5c0.02741-0.16356 0.05078-0.32841 0.05078-0.5v-1c0-1.662-1.338-3-3-3z" style="fill:#e97373;paint-order:stroke fill markers"/>
 <path d="m35 13c-1.662 0-3 1.338-3 3v1c0 0.17159 0.02337 0.33644 0.05078 0.5 0.23806-1.4207 1.4588-2.5 2.9492-2.5s2.7112 1.0793 2.9492 2.5c0.02741-0.16356 0.05078-0.32841 0.05078-0.5v-1c0-1.662-1.338-3-3-3z" style="fill:#e97373;paint-order:stroke fill markers"/>
 <path d="m35 33c-1.662 0-3-1.338-3-3v-1c0-0.17159 0.02337-0.33644 0.05078-0.5 0.23806 1.4207 1.4588 2.5 2.9492 2.5s2.7112-1.0793 2.9492-2.5c0.02741 0.16356 0.05078 0.32841 0.05078 0.5v1c0 1.662-1.338 3-3 3z" style="fill:#b62828;paint-order:stroke fill markers"/>
 <path d="m14 33c-1.662 0-3-1.338-3-3v-1c0-0.17159 0.02337-0.33644 0.05078-0.5 0.23806 1.4207 1.4588 2.5 2.9492 2.5s2.7112-1.0793 2.9492-2.5c0.02741 0.16356 0.05078 0.32841 0.05078 0.5v1c0 1.662-1.338 3-3 3z" style="fill:#b62828;paint-order:stroke fill markers"/>
 <path d="m10 15.092v12.816c-0.15722 0.05566-0.32324 0.0918-0.5 0.0918-0.831 0-1.5-0.669-1.5-1.5v1c0 0.831 0.669 1.5 1.5 1.5 0.17676 0 0.34278-0.03614 0.5-0.0918 0.14585-0.05163 0.2814-0.12341 0.40234-0.21484 7.42e-4 -5.55e-4 0.0012-0.0014 2e-3 -2e-3 0.11605-0.08808 0.21873-0.19086 0.30469-0.30859 0.0027-0.0037 0.0071-6e-3 0.0098-0.0098 0.0012-0.0016 7.73e-4 -0.0042 2e-3 -0.0059 0.07889-0.11109 0.14099-0.23436 0.1875-0.36524 0.0099-0.02763 0.01707-0.05561 0.02539-0.08398 0.03864-0.13348 0.06628-0.27142 0.06628-0.41785v-11c0-0.65424-0.41808-1.2022-1-1.4082z" style="opacity:.2;paint-order:stroke fill markers"/>
 <path d="m39 15.092v12.816c0.15722 0.05566 0.32324 0.0918 0.5 0.0918 0.831 0 1.5-0.669 1.5-1.5v1c0 0.831-0.669 1.5-1.5 1.5-0.17676 0-0.34278-0.03614-0.5-0.0918-0.14585-0.05163-0.2814-0.12341-0.40234-0.21484-7.42e-4 -5.55e-4 -0.0012-0.0014-2e-3 -2e-3 -0.11605-0.08808-0.21873-0.19086-0.30469-0.30859-0.0027-0.0037-0.0071-6e-3 -0.0098-0.0098-0.0012-0.0016-7.73e-4 -0.0042-2e-3 -0.0059-0.07889-0.11109-0.14099-0.23436-0.1875-0.36524-0.0099-0.02763-0.01707-0.05561-0.02539-0.08398-0.03864-0.13348-0.06628-0.27142-0.06628-0.41785v-11c0-0.65424 0.41808-1.2022 1-1.4082z" style="opacity:.2;paint-order:stroke fill markers"/>
 <rect x="17" y="20" width="1" height="4" style="opacity:.2;paint-order:stroke fill markers"/>
 <rect x="31" y="20" width="1" height="4" style="opacity:.2;paint-order:stroke fill markers"/>
</svg>
