<svg id="SVGRoot" width="48px" height="48px" version="1.1" viewBox="0 0 48 48" xmlns="http://www.w3.org/2000/svg">
 <rect x="1" y="1" width="46" height="46" ry="16" style="fill:#1f7bc5;paint-order:stroke fill markers;stroke-width:1.0455"/>
 <path d="m1 27v4c0 8.864 7.136 16 16 16h14c8.864 0 16-7.136 16-16v-4c0 8.864-7.136 16-16 16h-14c-8.864 0-16-7.136-16-16z" style="opacity:.2;paint-order:stroke fill markers;stroke-width:1.0455"/>
 <rect x="8" y="10" width="18" height="25" ry="1.6154" style="fill:#d48312;paint-order:stroke fill markers"/>
 <rect x="8" y="26" width="32" height="10" ry="1.6154" style="fill:#e0b113;paint-order:stroke fill markers"/>
 <rect x="10" y="14" width="28" height="20" ry="1.6154" style="fill:#f9f9f9;paint-order:stroke fill markers"/>
 <path d="m27.51 12c-1.0854 0-1.5101 1-1.5101 1.516v0.86879c0 0.89492-0.72031 1.6152-1.6152 1.6152-5.4575-0.003387-16.385 0-16.385 0v17.385c0 0.89492 0.72031 1.6152 1.6152 1.6152h28.77c0.89492 0 1.6152-0.72031 1.6152-1.6152v-19.77c0-0.89492-0.72031-1.6152-1.6152-1.6152z" style="fill:#ecd01f;paint-order:stroke fill markers"/>
 <path d="m24 19a3 3 0 0 0-3 3 3 3 0 0 0 3 3 3 3 0 0 0 3-3 3 3 0 0 0-3-3zm-6 5v1l3 3-1 5h2l2-3 2 3h2l-1-5 3-3v-1l-6 2-6-2z" style="fill:#d48312;paint-order:stroke fill markers;stroke-width:1.2"/>
</svg>
