<svg id="SVGRoot" width="48px" height="48px" version="1.1" viewBox="0 0 48 48" xmlns="http://www.w3.org/2000/svg">
 <rect x="1" y="1" width="46" height="46" ry="16" style="fill:#d1ca4a;paint-order:stroke fill markers;stroke-width:1.0455"/>
 <path d="m47 22-22 21h6c8.864 0 16-7.136 16-16v-5z" style="fill:#c6b232"/>
 <path d="m1 27v4c0 8.864 7.136 16 16 16h14c8.864 0 16-7.136 16-16v-4c0 8.864-7.136 16-16 16h-14c-8.864 0-16-7.136-16-16z" style="opacity:.2;paint-order:stroke fill markers;stroke-width:1.0455"/>
 <path d="m25 43v-17c0-2 2-4 4-4h18z" style="fill:#e3df93"/>
 <path d="m1 27v1c0 8.864 7.136 16 16 16h14c8.864 0 16-7.136 16-16v-1c0 8.864-7.136 16-16 16h-14c-8.864 0-16-7.136-16-16zm0 2v1c0 8.864 7.136 16 16 16h14c8.864 0 16-7.136 16-16v-1c0 8.864-7.136 16-16 16h-14c-8.864 0-16-7.136-16-16z" style="opacity:.2;paint-order:stroke fill markers"/>
</svg>
