<svg id="SVGRoot" width="48px" height="48px" version="1.1" viewBox="0 0 48 48" xmlns="http://www.w3.org/2000/svg">
 <rect x="1" y="1" width="46" height="46" ry="16" style="fill:#4dd02f;paint-order:stroke fill markers;stroke-width:1.0455"/>
 <rect x="12" y="7" width="24" height="32" rx="2" ry="2" style="opacity:.2;paint-order:stroke fill markers;stroke-width:.9798"/>
 <path d="m1 27v4c0 8.864 7.136 16 16 16h14c8.864 0 16-7.136 16-16v-4c0 8.864-7.136 16-16 16h-14c-8.864 0-16-7.136-16-16z" style="opacity:.2;paint-order:stroke fill markers;stroke-width:1.0455"/>
 <rect x="12" y="6" width="24" height="32" rx="2" ry="2" style="fill:#e2e2e2;paint-order:stroke fill markers;stroke-width:.9798"/>
 <rect x="12" y="5" width="24" height="32" rx="2" ry="2" style="fill:#f9f9f9;paint-order:stroke fill markers;stroke-width:.9798"/>
 <path d="m15 6-2 5h1l0.38281-1.0234c0.038551 0.0094646 0.075638 0.023438 0.11719 0.023438h2c0.04155 0 0.078638-0.013973 0.11719-0.023438l0.38281 1.0234h1l-2-5h-1zm0.5 1 0.75 2h-1.5l0.75-2zm8.5 6s-8 5-8 9c0 1 1 4 4 4 1.0541 0 2 0 3-1 0 3-1 4-1 4h4s-1-1-1-4c1 1 1.9459 1 3 1 3 0 4-3 4-4 0-4-8-9-8-9zm6 18 2 5h1l2-5h-1l-0.38281 1.0234c-0.038548-0.00947-0.075638-0.023438-0.11719-0.023438h-2c-0.04155 0-0.078638 0.013973-0.11719 0.023438l-0.38281-1.0234h-1zm1.75 2h1.5l-0.75 2-0.75-2z" style="fill:#2d2d2d"/>
</svg>
