<svg id="SVGRoot" width="48px" height="48px" version="1.1" viewBox="0 0 48 48" xmlns="http://www.w3.org/2000/svg">
 <rect x="1" y="1" width="46" height="46" ry="16" style="fill:#efefef;paint-order:stroke fill markers;stroke-width:1.0455"/>
 <path d="m30.826 6.3555c-2.2959 0.072054-5.1122 0.8524-8.2461 3.166l-1.7266-0.86328-2.6602 6.1133 8.0527-2.6602-1.582-1.0801c6.8803-5.2468 12.369-2.9473 12.369-2.9473s-2.3806-1.8486-6.207-1.7285zm-10.764 2.0879s-7.696 1.71-8.4141 7.2637l-1.582 0.35938 2.8047 2.6602 3.668-4.9629-1.9414 0.57617c-0.11939-3.0676 5.4648-5.8965 5.4648-5.8965zm16.395 0.50391-8.3398 3.7383 4.6738 4.3867 1.582-2.7324c7.8987 1.278 7.4062 8.7012 7.4062 8.7012s5.7057-10.728-5.9688-11.865l0.64648-2.2285zm-28.906 9.3477s-6.766 7.4175 0.35938 11.002l-1.5098 3.0195 8.1973-3.8105-3.1641-5.8242-1.3672 3.0918c-5.5758-1.4865-2.5156-7.4785-2.5156-7.4785zm24.881 0.43164-4.6035 8.6289 3.9551-1.2227c1.1181 8.1594-8.4844 13.375-8.4844 13.375 0 1e-6 14.781-2.02 13.375-15.172l3.8105-1.0801-8.0527-4.5293zm-6.041 8.7734-9.8516 2.2285 2.0859 2.1562c-8.4312 5.2493-12.369 1.2949-12.369 1.2949s3.8231 9.5942 14.453 1.2949l2.4453 2.3008 3.2363-9.2754z" style="opacity:.1"/>
 <path d="m1 27v4c0 8.864 7.136 16 16 16h14c8.864 0 16-7.136 16-16v-4c0 8.864-7.136 16-16 16h-14c-8.864 0-16-7.136-16-16z" style="opacity:.2;paint-order:stroke fill markers;stroke-width:1.0455"/>
 <path d="m27.829 26.355 4.6022-8.6291 8.0538 4.5303-3.8112 1.0786c1.4055 13.152-13.375 15.173-13.375 15.173s9.6034-5.2157 8.4853-13.375z" style="fill:#498c9f"/>
 <path d="m26.391 26.499-9.8516 2.2292 2.0854 2.1573c-8.4312 5.2493-12.368 1.2944-12.368 1.2944s3.8237 9.5936 14.454 1.2944l2.4449 2.3011z" style="fill:#27a75b"/>
 <path d="m14.598 27.506-3.164-5.8246-1.3663 3.0921c-5.5758-1.4865-2.5168-7.4786-2.5168-7.4786s-6.7659 7.4176 0.35955 11.002l-1.5101 3.0202z" style="fill:#fbc523"/>
 <path d="m20.854 7.659-2.6606 6.1123 8.0538-2.6606-1.582-1.0786c6.8803-5.2468 12.368-2.9483 12.368-2.9483s-6.0968-4.7315-14.454 1.4382z" style="fill:#fe5d47"/>
 <path d="m28.116 11.686 4.6741 4.3865 1.582-2.7325c7.8987 1.278 7.4066 8.701 7.4066 8.701s5.706-10.727-5.9685-11.865l0.64718-2.2292z" style="fill:#9d55d3"/>
 <path d="m12.872 17.726-2.8045-2.6606 1.582-0.35955c0.71807-5.5537 8.4134-7.2628 8.4134-7.2628s-5.5845 2.8289-5.4651 5.8966l1.9415-0.57527z" style="fill:#fe8304"/>
</svg>
