<svg id="SVGRoot" width="48px" height="48px" version="1.1" viewBox="0 0 48 48" xmlns="http://www.w3.org/2000/svg">
 <defs>
  <linearGradient id="linearGradient911" x1="25" x2="25" y1="47" y2="3" gradientUnits="userSpaceOnUse">
   <stop style="stop-color:#e557f0" offset="0"/>
   <stop style="stop-color:#7c13d1" offset="1"/>
  </linearGradient>
 </defs>
 <rect x="1" y="1" width="46" height="46" ry="16" style="fill:#661588;paint-order:stroke fill markers;stroke-width:1.0455"/>
 <path d="m21 3c-7 10-3.3431 13.057-9 14-2.8284 0.4714-7-5-7-5s11.116 19.851 4 23c-3.4755 1.538-5-3-7-9 0 5.9961 1.2489 11.243 2.498 14.992 2.9272 3.6628 7.4274 6.0078 12.502 6.0078h14c4.8312 0 9.1375-2.1301 12.066-5.4941 0.97657-3.2311 1.9336-7.6205 1.9336-12.506-2 4-4.7391 5.4528-7 4-6.1948-3.9808 1-7 2-22-2 8-4.9376 11.899-9 10-4.2703-1.9966 1-5 2-14-2 5-8 8-12 6-2-1-2-4 0-10z" style="fill:url(#linearGradient911)"/>
 <path d="m20 9a7 7 0 0 0-7 7 7 7 0 0 0 2.0059 4.9023 7 7 0 0 0-0.005859 0.097656 7 7 0 0 0 0.001953 0.080078 7 7 0 0 0-1.4746 0.38086 5 5 0 0 0-3.5273-1.4609 5 5 0 0 0-5 5 5 5 0 0 0 4.2812 4.9434 7 7 0 0 0 0.068359 0.22461 5 5 0 0 0-0.34961 1.832 5 5 0 0 0 5 5 5 5 0 0 0 2.502-0.67578 5 5 0 0 0 2.498 0.67578 5 5 0 0 0 5-5 5 5 0 0 0-1.0684-3.0801 7 7 0 0 0 0.068359-0.91992 7 7 0 0 0-0.003906-0.078125 7 7 0 0 0 2.918-1.125 7 7 0 0 0 3.4238 1.9941 5 5 0 0 0 4.6621 3.209 5 5 0 0 0 5-5 5 5 0 0 0-0.021484-0.41016 5 5 0 0 0 3.0215-4.5898 5 5 0 0 0-3.5273-4.7734 5 5 0 0 0 0.52734-2.2266 5 5 0 0 0-5-5 5 5 0 0 0-5 5 5 5 0 0 0 0.015625 0.29102 7 7 0 0 0-1.9277 0.90625 7 7 0 0 0-0.09375-0.09961 7 7 0 0 0 0.005859-0.097656 7 7 0 0 0-7-7z" style="opacity:.2;paint-order:stroke fill markers"/>
 <path d="m1 27v4c0 8.864 7.136 16 16 16h14c8.864 0 16-7.136 16-16v-4c0 8.864-7.136 16-16 16h-14c-8.864 0-16-7.136-16-16z" style="opacity:.2;paint-order:stroke fill markers;stroke-width:1.0455"/>
 <path d="m37 16a5 5 0 0 0-5 5 5 5 0 0 0 5 5 5 5 0 0 0 5-5 5 5 0 0 0-5-5zm-23 10a5 5 0 0 0-5 5 5 5 0 0 0 5 5 5 5 0 0 0 5-5 5 5 0 0 0-5-5z" style="fill:#d1d1d1;paint-order:stroke fill markers"/>
 <circle cx="20" cy="15" r="7" style="fill:#e932e1;paint-order:stroke fill markers"/>
 <circle cx="22" cy="20" r="7" style="fill:#454545;paint-order:stroke fill markers"/>
 <path d="m31 14a7 7 0 0 0-7 7 7 7 0 0 0 7 7 7 7 0 0 0 7-7 7 7 0 0 0-7-7zm-15 6a7 7 0 0 0-7 7 7 7 0 0 0 7 7 7 7 0 0 0 7-7 7 7 0 0 0-7-7z" style="fill:#2d2d2d;paint-order:stroke fill markers"/>
 <path d="m34 9a5 5 0 0 0-5 5 5 5 0 0 0 5 5 5 5 0 0 0 5-5 5 5 0 0 0-5-5zm-24 10a5 5 0 0 0-5 5 5 5 0 0 0 5 5 5 5 0 0 0 5-5 5 5 0 0 0-5-5zm24 2a5 5 0 0 0-5 5 5 5 0 0 0 5 5 5 5 0 0 0 5-5 5 5 0 0 0-5-5zm-15 5a5 5 0 0 0-5 5 5 5 0 0 0 5 5 5 5 0 0 0 5-5 5 5 0 0 0-5-5z" style="fill:#f9f9f9;paint-order:stroke fill markers"/>
</svg>
