<svg id="SVGRoot" width="48px" height="48px" version="1.1" viewBox="0 0 48 48" xmlns="http://www.w3.org/2000/svg">
 <rect x="1" y="1" width="46" height="46" ry="16" style="fill:#e03540;paint-order:stroke fill markers;stroke-width:1.0455"/>
 <path d="m1 27v4c0 8.864 7.136 16 16 16h14c8.864 0 16-7.136 16-16v-4c0 8.864-7.136 16-16 16h-14c-8.864 0-16-7.136-16-16z" style="opacity:.2;paint-order:stroke fill markers;stroke-width:1.0455"/>
 <path d="m23.425 8c-1.6073-0.00742-2.4972 1.4792-2.3979 4.1912 0.10997 3.0015 1.0955 4.8193 2.1161 6.4281-1.1227 3.5513-2.6802 6.6679-5.1523 11.704-1.7421 0.90861-3.5808 1.4136-5.9266 3.0335-1.4222 0.98211-3.3286 2.7486-3.0342 4.046 0.25704 1.133 1.9006 1.6668 3.0342 1.5894 3.5279-0.24099 6.63-6.1558 8.5392-8.9593 3.1642-0.99526 6.0582-1.9322 8.9609-2.3114 1.8189 1.4586 3.0458 2.5196 4.8705 3.1061 3.225 1.0366 6.6539 0.89292 6.563-1.0105-0.12613-2.641-1.8385-2.8518-5.2922-3.2513-2.6347-0.30482-3.9551 0.17688-5.9995 0.36104-2.2826-2.4985-3.9686-4.2041-5.1523-6.5007 0.6111-1.8804 1.8058-4.3993 1.6944-8.3079-0.06129-2.1507-0.86304-4.1095-2.8234-4.1186zm-0.21084 0.72208c1.0308-0.019644 1.477 1.1223 1.4107 2.7451-0.0881 2.1564-1.1999 6.2849-1.1999 6.2849s-1.6118-3.362-1.6925-5.8512c-0.04338-1.3372 0.31371-3.1565 1.4817-3.1787zm1.129 12.499c1.4443 2.0218 2.3357 3.2495 4.6577 5.8512-2.197 0.29581-5.0997 1.0795-7.8338 1.9504 1.0344-2.2138 1.7933-3.4949 3.1761-7.8016zm10.531 5.9631c0.67655 0.0032 1.3159 0.05131 1.819 0.1766 1.3482 0.33572 2.5322 0.72704 1.9762 1.9504-0.91844 2.0206-2.7401 1.1875-4.0233 0.72208-2.7772-1.0072-4.1632-2.4547-4.1632-2.4547s2.3617-0.40392 4.3913-0.3944zm-17.446 4.0774s-1.663 3.1827-3.6706 5.1291c-0.9627 0.93332-2.1392 2.5204-3.6687 1.2283-0.87935-0.74285 0.41621-2.1884 1.2708-2.9609 1.9532-1.7656 6.0685-3.3965 6.0685-3.3965z" style="opacity:.2;stroke-width:.99294"/>
 <path d="m23.425 7c-1.6073-0.00742-2.4972 1.4792-2.3979 4.1912 0.10997 3.0015 1.0955 4.8193 2.1161 6.4281-1.1227 3.5513-2.6802 6.6679-5.1523 11.704-1.7421 0.90861-3.5808 1.4136-5.9266 3.0335-1.4222 0.98211-3.3286 2.7486-3.0342 4.046 0.25704 1.133 1.9006 1.6668 3.0342 1.5894 3.5279-0.24099 6.63-6.1558 8.5392-8.9593 3.1642-0.99526 6.0582-1.9322 8.9609-2.3114 1.8189 1.4586 3.0458 2.5196 4.8705 3.1061 3.225 1.0366 6.6539 0.89292 6.563-1.0105-0.12613-2.641-1.8385-2.8518-5.2922-3.2513-2.6347-0.30482-3.9551 0.17688-5.9995 0.36104-2.2826-2.4985-3.9686-4.2041-5.1523-6.5007 0.6111-1.8804 1.8058-4.3993 1.6944-8.3079-0.06129-2.1507-0.86304-4.1095-2.8234-4.1186zm-0.21084 0.72208c1.0308-0.019644 1.477 1.1223 1.4107 2.7451-0.0881 2.1564-1.1999 6.2849-1.1999 6.2849s-1.6118-3.362-1.6925-5.8512c-0.04338-1.3372 0.31371-3.1565 1.4817-3.1787zm1.129 12.499c1.4443 2.0218 2.3357 3.2495 4.6577 5.8512-2.197 0.29581-5.0997 1.0795-7.8338 1.9504 1.0344-2.2138 1.7933-3.4949 3.1761-7.8016zm10.531 5.9631c0.67655 0.0032 1.3159 0.05131 1.819 0.1766 1.3482 0.33572 2.5322 0.72704 1.9762 1.9504-0.91844 2.0206-2.7401 1.1875-4.0233 0.72208-2.7772-1.0072-4.1632-2.4547-4.1632-2.4547s2.3617-0.40392 4.3913-0.3944zm-17.446 4.0774s-1.663 3.1827-3.6706 5.1291c-0.9627 0.93332-2.1392 2.5204-3.6687 1.2283-0.87935-0.74285 0.41621-2.1884 1.2708-2.9609 1.9532-1.7656 6.0685-3.3965 6.0685-3.3965z" style="fill:#f9f9f9;stroke-width:.99294"/>
</svg>
