<svg id="SVGRoot" width="48px" height="48px" version="1.1" viewBox="0 0 48 48" xmlns="http://www.w3.org/2000/svg">
 <rect x="1" y="1" width="46" height="46" ry="16" style="fill:#32489a;paint-order:stroke fill markers;stroke-width:1.0455"/>
 <path d="m1 27v4c0 8.864 7.136 16 16 16h14c8.864 0 16-7.136 16-16v-4c0 8.864-7.136 16-16 16h-14c-8.864 0-16-7.136-16-16z" style="opacity:.2;paint-order:stroke fill markers;stroke-width:1.0455"/>
 <path d="m15 7c-3.324 0-6 2.676-6 6v12c0 2.412 1.4119 4.4769 3.4551 5.4316l-4.4551 8.5684h7l3.7891-8h10.422l3.7891 8h7l-4.4551-8.5684c2.0432-0.95475 3.4551-3.0196 3.4551-5.4316v-12c0-3.324-2.676-6-6-6h-2v5h1c1.662 0 3 1.338 3 3v9c0 1.0976-0.58984 2.0435-1.4648 2.5664l-6.5352-12.566h-6l-6.5352 12.566c-0.875-0.52293-1.4648-1.4688-1.4648-2.5664v-9c0-1.662 1.338-3 3-3h1v-5zm9 13 3.3164 7h-6.6328z" style="opacity:.2"/>
 <path d="m15 6c-3.324 0-6 2.676-6 6v12c0 2.412 1.4119 4.4769 3.4551 5.4316l-4.4551 8.5684h7l3.7891-8h5.2109 5.2109l3.7891 8h7l-4.4551-8.5684c2.0432-0.95475 3.4551-3.0196 3.4551-5.4316v-12c0-3.324-2.676-6-6-6h-2v5h1c1.662 0 3 1.338 3 3v9c0 1.0976-0.58984 2.0435-1.4648 2.5664l-6.5352-12.566h-3-3l-6.5352 12.566c-0.875-0.52293-1.4648-1.4688-1.4648-2.5664v-9c0-1.662 1.338-3 3-3h1v-5h-2zm9 13 3.3164 7h-3.3164-3.3164l3.3164-7z" style="fill:#57b3c8"/>
</svg>
