<svg id="SVGRoot" width="48px" height="48px" version="1.1" viewBox="0 0 48 48" xmlns="http://www.w3.org/2000/svg">
 <rect x="1" y="1" width="46" height="46" ry="16" style="fill:#dfa81a;paint-order:stroke fill markers;stroke-width:1.0455"/>
 <path d="m1 27v4c0 8.864 7.136 16 16 16h14c8.864 0 16-7.136 16-16v-4c0 8.864-7.136 16-16 16h-14c-8.864 0-16-7.136-16-16z" style="opacity:.2;paint-order:stroke fill markers;stroke-width:1.0455"/>
 <rect x="4" y="4" width="40" height="36" ry="13" style="fill:#5b460d;paint-order:stroke fill markers"/>
 <path d="m17 4c-7.202 0-13 5.798-13 13v1c0-7.202 5.798-13 13-13h14c7.202 0 13 5.798 13 13v-1c0-7.202-5.798-13-13-13h-14z" style="opacity:.2;paint-order:stroke fill markers"/>
 <path d="m14 14v19h6s6 0 6-6c0-3.567-2.5215-4.4785-2.5215-4.4785s1.5215-1.5215 1.5215-3.5215c0-5-5-5-5-5zm4.582 2.8418c1.4648-0.029297 3.418 0.2832 3.418 2.1582 0 2-1 3-1 3h-4v-5s0.70312-0.14062 1.582-0.1582zm16.418 2.1582c-4 0-6 1-6 1v13h3v-11h3zm-18 5h3s3 0 3 3-3 3-3 3h-3z" style="opacity:.2"/>
 <path d="m14 13v19h6s6 0 6-6c0-3.567-2.5215-4.4785-2.5215-4.4785s1.5215-1.5215 1.5215-3.5215c0-5-5-5-5-5h-6zm4.582 2.8418c1.4648-0.029297 3.418 0.2832 3.418 2.1582 0 2-1 3-1 3h-4v-5s0.70312-0.14062 1.582-0.1582zm16.418 2.1582c-4 0-6 1-6 1v13h3v-11h3v-3zm-18 5h3s3 0 3 3-3 3-3 3h-3v-6z" style="fill:#dfa81a"/>
</svg>
