<svg id="SVGRoot" width="48px" height="48px" version="1.1" viewBox="0 0 48 48" xmlns="http://www.w3.org/2000/svg">
 <rect x="1" y="1" width="46" height="46" ry="16" style="fill:#e6552e;paint-order:stroke fill markers;stroke-width:1.0455"/>
 <path d="m1 27v4c0 8.864 7.136 16 16 16h14c8.864 0 16-7.136 16-16v-4c0 8.864-7.136 16-16 16h-14c-8.864 0-16-7.136-16-16z" style="opacity:.2;paint-order:stroke fill markers;stroke-width:1.0455"/>
 <rect x="4" y="4" width="40" height="36" ry="13" style="fill:#5b180d;paint-order:stroke fill markers"/>
 <path d="m17 4c-7.202 0-13 5.798-13 13v1c0-7.202 5.798-13 13-13h14c7.202 0 13 5.798 13 13v-1c0-7.202-5.798-13-13-13h-14z" style="opacity:.2;paint-order:stroke fill markers"/>
 <path d="m15 13v1l-5 19h3l1.5039-6h5.8809l1.6152 6h3l-6-20h-4zm2.3398 2.6953 2.2363 8.3047h-4.3184l2.082-8.3047zm14.66 2.3047c-3 0-5 1-5 1v14h3v-12h2c1 0 2 1 2 2v10h3v-11c0-3-2.8656-4-5-4z" style="opacity:.2"/>
 <path d="m15 12v1l-5 19h3l1.5039-6h5.8809l1.6152 6h3l-6-20h-4zm2.3398 2.6953 2.2363 8.3047h-4.3184l2.082-8.3047zm14.66 2.3047c-3 0-5 1-5 1v14h3v-12h2c1 0 2 1 2 2v10h3v-11c0-3-2.8656-4-5-4z" style="fill:#e6552e"/>
</svg>
