<svg id="SVGRoot" width="48px" height="48px" version="1.1" viewBox="0 0 48 48" xmlns="http://www.w3.org/2000/svg">
 <rect x="1" y="1" width="46" height="46" ry="16" style="fill:#e03540;paint-order:stroke fill markers;stroke-width:1.0455"/>
 <path d="m1 27v4c0 8.864 7.136 16 16 16h14c8.864 0 16-7.136 16-16v-4c0 8.864-7.136 16-16 16h-14c-8.864 0-16-7.136-16-16z" style="opacity:.2;paint-order:stroke fill markers;stroke-width:1.0455"/>
 <path d="m22.508 10.889s-1.4749 4.2972-4.0273 7.334c-2.0892 2.4857-6.3281 3.5957-6.3281 3.5957s-5.4357 1.5965-3.668 7.4062c1.1204 3.6822 5.1777 3.4512 5.1777 3.4512s5.7843-1.2219 8.7012-0.42969c2.1432 0.58205 5.6094 3.5938 5.6094 3.5938s3.7951 4.3289 8.4141-0.07031c3.282-3.1258 0.21484-7.0488 0.21484-7.0488 1e-6 0-4.2114-4.1991-4.5293-7.2617-0.35563-3.4263 0.57422-7.6953 0.57422-7.6953s0.64642-4.3431-4.6738-5.6074c-4.2603-1.0124-5.4648 2.7324-5.4648 2.7324zm1.7969 7.8379c3.0178 1.41e-4 5.4643 2.4624 5.4648 5.5 4.96e-4 3.0384-2.4463 5.5018-5.4648 5.502-3.0185-1.4e-4 -5.4653-2.4636-5.4648-5.502 5.77e-4 -3.0376 2.4471-5.4999 5.4648-5.5z" style="opacity:.2"/>
 <path d="m22.508 9.8887s-1.4749 4.2972-4.0273 7.334c-2.0892 2.4857-6.3281 3.5957-6.3281 3.5957s-5.4357 1.5965-3.668 7.4062c1.1204 3.6822 5.1777 3.4512 5.1777 3.4512s5.7843-1.2219 8.7012-0.42969c2.1432 0.58205 5.6094 3.5938 5.6094 3.5938s3.7951 4.3289 8.4141-0.07031c3.282-3.1258 0.21484-7.0488 0.21484-7.0488 1e-6 0-4.2114-4.1991-4.5293-7.2617-0.35563-3.4263 0.57422-7.6953 0.57422-7.6953s0.64642-4.3431-4.6738-5.6074c-4.2603-1.0124-5.4648 2.7324-5.4648 2.7324zm1.7969 7.8379c3.0178 1.41e-4 5.4643 2.4624 5.4648 5.5 4.96e-4 3.0384-2.4463 5.5018-5.4648 5.502-3.0185-1.4e-4 -5.4653-2.4636-5.4648-5.502 5.77e-4 -3.0376 2.4471-5.4999 5.4648-5.5z" style="fill:#f9f9f9"/>
</svg>
