<svg id="SVGRoot" width="48px" height="48px" version="1.1" viewBox="0 0 48 48" xmlns="http://www.w3.org/2000/svg">
 <rect x="1" y="1" width="46" height="46" ry="16" style="fill:#bdc4c6;paint-order:stroke fill markers;stroke-width:1.0455"/>
 <path d="m1 27v4c0 8.864 7.136 16 16 16h14c8.864 0 16-7.136 16-16v-4c0 8.864-7.136 16-16 16h-14c-8.864 0-16-7.136-16-16z" style="opacity:.2;paint-order:stroke fill markers;stroke-width:1.0455"/>
 <path d="m11 9c-2.216 0-4 1.784-4 4v5h3v-4c0-1.108 0.892-2 2-2h4v-3zm21 0v3h4c1.108 0 2 0.892 2 2v4h3v-5c0-2.216-1.784-4-4-4zm-15 6c-0.554 0-1 0.446-1 1v1.2754c-0.5958 0.34556-1 0.98354-1 1.7246v11c0 1.108 0.892 2 2 2h14c1.108 0 2-0.892 2-2v-11c0-1.108-0.892-2-2-2h-9v-1c0-0.554-0.446-1-1-1zm7 4a5 5 0 0 1 5 5 5 5 0 0 1-5 5 5 5 0 0 1-5-5 5 5 0 0 1 5-5zm0 2a3 3 0 0 0-3 3 3 3 0 0 0 3 3 3 3 0 0 0 3-3 3 3 0 0 0-3-3zm-17 6v6c0 2.216 1.784 4 4 4h5v-3h-4c-1.108 0-2-0.892-2-2v-5zm31 0v5c0 1.108-0.892 2-2 2h-4v3h5c2.216 0 4-1.784 4-4v-6z" style="opacity:.1;paint-order:stroke fill markers"/>
 <path d="m11 8c-2.216 0-4 1.784-4 4v5h3v-4c0-1.108 0.892-2 2-2h4v-3h-5zm21 0v3h4c1.108 0 2 0.892 2 2v4h3v-5c0-2.216-1.784-4-4-4h-5zm-15 6c-0.554 0-1 0.446-1 1v1.2754c-0.5958 0.34556-1 0.98354-1 1.7246v11c0 1.108 0.892 2 2 2h14c1.108 0 2-0.892 2-2v-11c0-1.108-0.892-2-2-2h-9v-1c0-0.554-0.446-1-1-1h-4zm7 4a5 5 0 0 1 5 5 5 5 0 0 1-5 5 5 5 0 0 1-5-5 5 5 0 0 1 5-5zm0 2a3 3 0 0 0-3 3 3 3 0 0 0 3 3 3 3 0 0 0 3-3 3 3 0 0 0-3-3zm-17 6v6c0 2.216 1.784 4 4 4h5v-3h-4c-1.108 0-2-0.892-2-2v-5h-3zm31 0v5c0 1.108-0.892 2-2 2h-4v3h5c2.216 0 4-1.784 4-4v-6h-3z" style="fill:#2d2d2d;paint-order:stroke fill markers"/>
</svg>
