<svg id="SVGRoot" width="48px" height="48px" version="1.1" viewBox="0 0 48 48" xmlns="http://www.w3.org/2000/svg">
 <path d="m24 1 23 22v8c0 8.864-7.136 16-16 16h-7l-23-24v-6c0-8.864 7.136-16 16-16z" style="fill:#6b4026;paint-order:stroke fill markers;stroke-width:1.0455"/>
 <path d="m31 1c8.864 0 16 7.136 16 16v6h-23v-22zm-7 22v24h-7c-8.864 0-16-7.136-16-16v-8z" style="fill:#c8975a;paint-order:stroke fill markers"/>
 <path d="m33 5v1l-5 2v2h2c1 0 1.2546 1 2 1 2 0 3-1 3-1s-1.1741 2.1269-2 3c-1.1454 1.2108-4 3-4 3l1.334 2h-1.334v2h-2v3h16v-3h-2v-2h-1.5723c0.58646-1.4796 1.5723-4.4746 1.5723-8 0-4-8-5-8-5zm-26 20v4h1v1h1v4h-1v2h-2v3h16v-3h-2v-2h-1v-4h1v-1h1v-4h-3v2h-2v-2h-4v2h-2v-2h-3z" style="opacity:.2;paint-order:stroke fill markers"/>
 <path d="m7 24v4h1v1h1v4h-1v2h-2v3h16v-3h-2v-2h-1v-4h1v-1h1v-4h-3v2h-2v-2h-4v2h-2v-2z" style="fill:#f9f9f9;paint-order:stroke fill markers"/>
 <path d="m1 27v4c0 8.864 7.136 16 16 16h14c8.864 0 16-7.136 16-16v-4c0 8.864-7.136 16-16 16h-14c-8.864 0-16-7.136-16-16z" style="opacity:.2;paint-order:stroke fill markers;stroke-width:1.0455"/>
 <path d="m33 4v1l-5 2v2h2c1 0 1.2546 1 2 1 2 0 3-1 3-1s-1.1741 2.1269-2 3c-1.1454 1.2108-4 3-4 3l1.334 2h-1.334v2h-2v3h16v-3h-2v-2h-1.5723c0.58646-1.4796 1.5723-4.4746 1.5723-8 0-4-8-5-8-5z" style="fill:#2d2d2d;paint-order:stroke fill markers"/>
</svg>
