<svg id="SVGRoot" width="48px" height="48px" version="1.1" viewBox="0 0 48 48" xmlns="http://www.w3.org/2000/svg">
 <rect x="1" y="1" width="46" height="46" ry="16" style="fill:#1c98f2;paint-order:stroke fill markers;stroke-width:1.0455"/>
 <path d="m26 7-5 1v22l5-1v-9l7 10 6-2-8-10 8-9-6-1-7 9v-10zm-12 7-2 2 2.377 3.9609a10 10 0 0 0-0.98438 2.2812l-4.3926 1.7578v2l4.3926 1.7578a10 10 0 0 0 0.98438 2.2812l-2.377 3.9609 2 2 3.959-2.375a10 10 0 0 0 2.2812 0.97852l1.7598 4.3965h2l1.7598-4.3965a10 10 0 0 0 2.2812-0.97852l3.959 2.375 2-2-2.377-3.9609a10 10 0 0 0 0.25391-0.48437l-1.3848-1.7793a8 8 0 0 1-7.4922 5.2246 8 8 0 0 1-8-8 8 8 0 0 1 5-7.4121v-2.1094a10 10 0 0 0-2.041 0.89648l-3.959-2.375z" style="opacity:.2;paint-order:stroke fill markers;stroke-width:.90909"/>
 <path d="m1 27v4c0 8.864 7.136 16 16 16h14c8.864 0 16-7.136 16-16v-4c0 8.864-7.136 16-16 16h-14c-8.864 0-16-7.136-16-16z" style="opacity:.2;paint-order:stroke fill markers;stroke-width:1.0455"/>
 <path d="m26 6-5 1v22l5-1v-9l7 10 6-2-8-10 8-9-6-1-7 9v-10zm-12 7-2 2 2.377 3.9609a10 10 0 0 0-0.98438 2.2812l-4.3926 1.7578v2l4.3926 1.7578a10 10 0 0 0 0.98438 2.2812l-2.377 3.9609 2 2 3.959-2.375a10 10 0 0 0 2.2812 0.97852l1.7598 4.3965h2l1.7598-4.3965a10 10 0 0 0 2.2812-0.97852l3.959 2.375 2-2-2.377-3.9609a10 10 0 0 0 0.25391-0.48437l-1.3848-1.7793a8 8 0 0 1-7.4922 5.2246 8 8 0 0 1-8-8 8 8 0 0 1 5-7.4121v-2.1094a10 10 0 0 0-2.041 0.89648l-3.959-2.375z" style="fill:#f9f9f9;paint-order:stroke fill markers;stroke-width:.90909"/>
</svg>
