<svg id="SVGRoot" width="48px" height="48px" version="1.1" viewBox="0 0 48 48" xmlns="http://www.w3.org/2000/svg">
 <rect x="1" y="1" width="46" height="46" ry="16" style="fill:#15a3da;paint-order:stroke fill markers;stroke-width:1.0455"/>
 <path d="m1 27v4c0 8.864 7.136 16 16 16h14c8.864 0 16-7.136 16-16v-4c0 8.864-7.136 16-16 16h-14c-8.864 0-16-7.136-16-16z" style="opacity:.2;paint-order:stroke fill markers;stroke-width:1.0455"/>
 <path d="m38 9-15 2.1426v10.857h15zm-16 2.2852-12 1.7148v9h12zm-12 11.715v10l12 1.7148v-11.715zm13 0v11.857l15 2.1426v-14z" style="opacity:.2;paint-order:stroke fill markers"/>
 <path d="m38 8-15 2.1426v10.857h15zm-16 2.2852-12 1.7148v9h12zm-12 11.715v10l12 1.7148v-11.715zm13 0v11.857l15 2.1426v-14z" style="fill:#f9f9f9;paint-order:stroke fill markers"/>
</svg>
