<svg id="SVGRoot" width="48px" height="48px" version="1.1" viewBox="0 0 48 48" xmlns="http://www.w3.org/2000/svg">
 <rect x="1" y="1" width="46" height="46" ry="16" style="fill:#1f7bc5;paint-order:stroke fill markers;stroke-width:1.0455"/>
 <path d="m1 27v4c0 8.864 7.136 16 16 16h14c8.864 0 16-7.136 16-16v-4c0 8.864-7.136 16-16 16h-14c-8.864 0-16-7.136-16-16z" style="opacity:.2;paint-order:stroke fill markers;stroke-width:1.0455"/>
 <path d="m24 7c-2.7614 0-5 2.2386-5 5 0 2.7614 2.2386 5 5 5s5-2.2386 5-5c0-2.7614-2.2386-5-5-5zm-13 10v2s4 2 8 3c-1 8-3 15-3 15h3s0-1 5-8c5 7 5 8 5 8h3s-2-7-3-15c4-1 8-3 8-3v-2s-7 1-13 1-13-1-13-1z" style="opacity:.2"/>
 <path d="m24 6c-2.7614 0-5 2.2386-5 5 0 2.7614 2.2386 5 5 5s5-2.2386 5-5c0-2.7614-2.2386-5-5-5zm-13 10v2s4 2 8 3c-1 8-3 15-3 15h3s0-1 5-8c5 7 5 8 5 8h3s-2-7-3-15c4-1 8-3 8-3v-2s-7 1-13 1-13-1-13-1z" style="fill:#f9f9f9"/>
</svg>
