<svg id="SVGRoot" width="48px" height="48px" version="1.1" viewBox="0 0 48 48" xmlns="http://www.w3.org/2000/svg">
 <rect x="1" y="1" width="46" height="46" ry="16" style="fill:#999;paint-order:stroke fill markers;stroke-width:1.0455"/>
 <path d="m1 27v4c0 8.864 7.136 16 16 16h14c8.864 0 16-7.136 16-16v-4c0 8.864-7.136 16-16 16h-14c-8.864 0-16-7.136-16-16z" style="opacity:.2;paint-order:stroke fill markers;stroke-width:1.0455"/>
 <circle cx="24" cy="22" r="17" style="fill:#4e4e4e;paint-order:stroke fill markers;stroke-width:1.1333"/>
 <path d="m22 11-2 5-4-2-3 3 2 3-5 3v4l5 3-2 3 3 3 4-2 2 5h4l2-5 4 2 3-3-2-3 5-3v-4l-5-3 2-3-3-3-4 2-2-5zm2 8c3.3137 0 6 2.6863 6 6s-2.6863 6-6 6-6-2.6863-6-6 2.6863-6 6-6z" style="opacity:.2"/>
 <path d="m22 10-2 5-7-1v2l2 3-5 3v4l5 3-2 1v2l3 3 4-2 2 5h4l2-5 4 2 3-3v-2l-2-1 5-3v-4l-5-3 2-3v-2l-7 1-2-5zm2 8c3.3137 0 6 2.6863 6 6s-2.6863 6-6 6-6-2.6863-6-6 2.6863-6 6-6z" style="fill:#878787"/>
 <path d="m22 8-2 5-4-2-3 3 2 3-5 3v4l5 3-2 3 3 3 4-2 2 5h4l2-5 4 2 3-3-2-3 5-3v-4l-5-3 2-3-3-3-4 2-2-5zm2 8c3.3137 0 6 2.6863 6 6s-2.6863 6-6 6-6-2.6863-6-6 2.6863-6 6-6z" style="fill:#b1b1b1"/>
 <path d="m24 5a17 17 0 0 0-17 17 17 17 0 0 0 0.021484 0.5957 17 16 0 0 1 16.979-15.596 17 16 0 0 1 16.979 15.434 17 17 0 0 0 0.021484-0.43359 17 17 0 0 0-17-17z" style="opacity:.2;paint-order:stroke fill markers;stroke-width:1.1333"/>
</svg>
