<svg id="SVGRoot" width="48px" height="48px" version="1.1" viewBox="0 0 48 48" xmlns="http://www.w3.org/2000/svg">
 <rect x="1" y="1" width="46" height="46" ry="16" style="fill:#5a768f;paint-order:stroke fill markers;stroke-width:1.0455"/>
 <path d="m13.031 4.0473c-1.4062-0.046875-2.5312 0.20312-3.0312 0.95312-6 9-2 17-2 17s-4 8 2 17c2 3 14-2 14-2s12 5 14 2c6-9 2-17 2-17s4-8-2-17c-0.5-0.75-1.625-1-3.0312-0.95312-4.2188 0.14062-10.969 2.9531-10.969 2.9531s-6.75-2.8125-10.969-2.9531zm0.84375 1c2.5405 0.090733 5.8778 1.2574 8.0254 2.0996a16 15 0 0 0-13.66 12.268c-0.60953-2.9127-0.85849-7.9867 2.7598-13.414 0.5-0.75 1.5625-1 2.875-0.95312zm20.25 0c1.3125-0.046875 2.375 0.20312 2.875 0.95312 3.6341 5.4512 3.3673 10.547 2.752 13.453a16 15 0 0 0-13.68-12.309c2.153-0.84044 5.5429-2.008 8.0527-2.0977zm-10.221 10.953a9 7 0 0 1 0.0957 0 9 7 0 0 1 7.8164 3.5508 8 7 0 0 1 0.1836 1.4492 8 7 0 0 1-8 7 8 7 0 0 1-8-7 8 7 0 0 1 0.16602-1.4121 9 7 0 0 1 7.7383-3.5879zm-15.656 8.5469a16 15 0 0 0 13.68 12.309c-3.2789 1.28-9.4716 3.3287-10.928 1.1445-3.6341-5.4512-3.3673-10.547-2.752-13.453zm31.512 0.03906c0.60954 2.9127 0.85849 7.9867-2.7598 13.414-1.4553 2.183-7.6415 0.13752-10.922-1.1426a16 15 0 0 0 13.682-12.271z" style="opacity:.2"/>
 <path d="m13.031 3.0473c-1.4062-0.046875-2.5312 0.20312-3.0312 0.95312-6 9-2 17-2 17s-4 8 2 17c2 3 14-2 14-2s12 5 14 2c6-9 2-17 2-17s4-8-2-17c-0.5-0.75-1.625-1-3.0312-0.95312-4.2188 0.14062-10.969 2.9531-10.969 2.9531s-6.75-2.8125-10.969-2.9531zm0.84375 1c3.9375 0.14062 10.125 2.9531 10.125 2.9531s11-5 13-2c4.3928 6.5891 3.093 12.71 2.3574 15-0.35742 1-0.35742 1 0 2 0.73554 2.2896 2.0353 8.4109-2.3574 15-2 3-13-2-13-2s-11 5-13 2c-4.3928-6.5891-3.093-12.71-2.3574-15 0.35742-1 0.35742-1 0-2-0.73554-2.2896-2.0353-8.4109 2.3574-15 0.5-0.75 1.5625-1 2.875-0.95312z" style="fill:#cbcbcb"/>
 <path d="m1 27v4c0 8.864 7.136 16 16 16h14c8.864 0 16-7.136 16-16v-4c0 8.864-7.136 16-16 16h-14c-8.864 0-16-7.136-16-16z" style="opacity:.2;paint-order:stroke fill markers;stroke-width:1.0455"/>
 <path d="m24 6.0004a16 15 0 0 0-16 15 16 15 0 0 0 16 15 16 15 0 0 0 16-15 16 15 0 0 0-16-15zm0 7a9 8 0 0 0-0.70312 0.03125 8 7 0 0 1 0.70312-0.03125zm0.76562 0.0332a8 7 0 0 1 0.13086 0.01563 9 8 0 0 0-0.13086-0.01563zm-2.0801 0.06445a9 8 0 0 0-0.06445 0.0078 8 7 0 0 1 0.06445-0.0078zm1.2188 1.9023a9 7 0 0 1 0.0957 0 9 7 0 0 1 7.8164 3.5508 8 7 0 0 1 0.1836 1.4492 8 7 0 0 1-8 7 8 7 0 0 1-8-7 8 7 0 0 1 0.16602-1.4121 9 7 0 0 1 7.7383-3.5879z" style="fill:#ff9a36;paint-order:stroke fill markers"/>
 <path d="m24 6.0004a16 15 0 0 0-2 0.13086v9.0566a9 7 0 0 1 1.9043-0.1875 9 7 0 0 1 0.0957 0 9 7 0 0 1 2 0.18555v-9.0488a16 15 0 0 0-2-0.13672zm-15.658 12a16 15 0 0 0-0.3418 3 16 15 0 0 0 0.052734 1h8.2871a8 7 0 0 1-0.33984-2 8 7 0 0 1 0.16602-1.4121 9 7 0 0 1 0.47266-0.58789zm23.016 0a9 7 0 0 1 0.45898 0.55078 8 7 0 0 1 0.18359 1.4492 8 7 0 0 1-0.33789 2h8.2988a16 15 0 0 0 0.03906-1 16 15 0 0 0-0.32422-3zm-9.3574 8.7695v9.0938a16 15 0 0 0 2 0.13672 16 15 0 0 0 2-0.13086v-9.0977a8 7 0 0 1-2 0.22852 8 7 0 0 1-2-0.23047z" style="fill:#f9f9f9;paint-order:stroke fill markers"/>
 <path d="m24 13a9 8 0 0 0-0.70312 0.03125 8 7 0 0 0-0.61133 0.06641 9 8 0 0 0-0.06445 0.0078 8 7 0 0 0-6.4551 5.4824 9 7 0 0 1 7.834-3.5879 9 7 0 0 1 7.8164 3.5508 8 7 0 0 0-6.9199-5.502 9 8 0 0 0-0.13086-0.015625 8 7 0 0 0-0.76562-0.033203z" style="opacity:.2;paint-order:stroke fill markers"/>
 <path d="m39.977 20.403a16 14 0 0 1-15.977 13.598 16 14 0 0 1-15.977-13.438 16 15 0 0 0-0.023438 0.4375 16 15 0 0 0 16 15 16 15 0 0 0 16-15 16 15 0 0 0-0.02344-0.59766z" style="opacity:.2;paint-order:stroke fill markers"/>
</svg>
