<svg id="SVGRoot" width="48px" height="48px" version="1.1" viewBox="0 0 48 48" xmlns="http://www.w3.org/2000/svg">
 <rect x="1" y="1" width="46" height="46" ry="16" style="fill:#616161;paint-order:stroke fill markers;stroke-width:1.0455"/>
 <path d="m1 27v4c0 8.864 7.136 16 16 16h14c8.864 0 16-7.136 16-16v-4c0 8.864-7.136 16-16 16h-14c-8.864 0-16-7.136-16-16z" style="opacity:.2;paint-order:stroke fill markers;stroke-width:1.0455"/>
 <rect x="4" y="6" width="40" height="34" ry="13" style="fill:#2d2d2d;paint-order:stroke fill markers;stroke-width:.98561"/>
 <path d="m15 11a6 6 0 0 0-6 6 6 6 0 0 0 6 6 6 6 0 0 0 6-6 6 6 0 0 0-6-6zm7 1v1h10v-1h-10zm0 3v1h17v-1h-17zm0 2v1h12v-1h-12zm0 2v1h15v-1h-15zm0 2v1h11v-1h-11zm-7 4-6 3c0 6 6 9 6 9s6-3 6-9l-6-3zm7 1v1h7v-1h-7zm0 3v1h11v-1h-11zm0 2v1h16v-1h-16zm0 2v1h9v-1h-9zm0 2v1h14v-1h-14z" style="opacity:.2;paint-order:stroke fill markers"/>
 <path d="m17 4c-7.202 0-13 5.798-13 13v2c0-7.202 5.798-13 13-13h14c7.202 0 13 5.798 13 13v-2c0-7.202-5.798-13-13-13h-14z" style="opacity:.2;paint-order:stroke fill markers;stroke-width:1.0142"/>
 <circle cx="15" cy="16" r="6" style="fill:#f9f9f9;paint-order:stroke fill markers"/>
 <circle cx="15" cy="16" r="4" style="fill:#227edd;paint-order:stroke fill markers"/>
 <path d="m15 24 6 3c0 6-6 9-6 9s-6-3-6-9z" style="fill:#f9f9f9"/>
 <path d="m11 28 4-2 4 2c0 4-4 6-4 6s-4-2-4-6z" style="fill:#df2020"/>
 <path d="m14.5 13c-0.277 0-0.5 0.223-0.5 0.5s0.223 0.5 0.5 0.5h1c0.277 0 0.5-0.223 0.5-0.5s-0.223-0.5-0.5-0.5h-1zm0 2c-0.277 0-0.5 0.223-0.5 0.5v3c0 0.277 0.223 0.5 0.5 0.5h1c0.277 0 0.5-0.223 0.5-0.5v-3c0-0.277-0.223-0.5-0.5-0.5h-1z" style="fill:#f9f9f9;paint-order:stroke fill markers"/>
 <path d="m13 28v1l1 1-1 1v1h1l1-1 1 1h1v-1l-1-1 1-1v-1h-1l-1 1-1-1h-1z" style="fill:#f9f9f9"/>
 <rect x="22" y="11" width="10" height="1" style="fill:#f9f9f9;paint-order:stroke fill markers"/>
 <rect x="22" y="14" width="17" height="1" style="fill:#f9f9f9;paint-order:stroke fill markers"/>
 <rect x="22" y="16" width="12" height="1" style="fill:#f9f9f9;paint-order:stroke fill markers"/>
 <rect x="22" y="18" width="15" height="1" style="fill:#f9f9f9;paint-order:stroke fill markers"/>
 <rect x="22" y="20" width="11" height="1" style="fill:#f9f9f9;paint-order:stroke fill markers"/>
 <rect x="22" y="25" width="7" height="1" style="fill:#f9f9f9;paint-order:stroke fill markers"/>
 <rect x="22" y="28" width="11" height="1" style="fill:#f9f9f9;paint-order:stroke fill markers"/>
 <rect x="22" y="30" width="16" height="1" style="fill:#f9f9f9;paint-order:stroke fill markers"/>
 <rect x="22" y="32" width="9" height="1" style="fill:#f9f9f9;paint-order:stroke fill markers"/>
 <rect x="22" y="34" width="14" height="1" style="fill:#f9f9f9;paint-order:stroke fill markers"/>
</svg>
