<svg id="SVGRoot" width="48px" height="48px" version="1.1" viewBox="0 0 48 48" xmlns="http://www.w3.org/2000/svg">
 <rect x="1" y="1" width="46" height="46" ry="16" style="fill:#5a0d0c;paint-order:stroke fill markers;stroke-width:1.0455"/>
 <path d="m1 27v4c0 8.864 7.136 16 16 16h14c8.864 0 16-7.136 16-16v-4c0 8.864-7.136 16-16 16h-14c-8.864 0-16-7.136-16-16z" style="opacity:.2;paint-order:stroke fill markers;stroke-width:1.0455"/>
 <ellipse cx="24" cy="36.5" rx="10" ry="2.5" style="opacity:.2;paint-order:stroke fill markers;stroke-width:1.118"/>
 <ellipse cx="24" cy="36" rx="7" ry="2" style="fill:#c7c7c7;paint-order:stroke fill markers"/>
 <path d="m21 35s2-2 2-4v-11h2v11c0 2 2 4 2 4s-1 1-3 1-3-1-3-1z" style="fill:#dedede"/>
 <path d="m23 20v5.9453a11 11 0 0 0 1 0.054688 11 11 0 0 0 1-0.050781v-5.9492h-2z" style="opacity:.1;paint-order:stroke fill markers"/>
 <path d="m14.215 9a11 11 0 0 0-1.2148 5 11 11 0 0 0 11 11 11 11 0 0 0 11-11 11 11 0 0 0-1.2031-5h-19.582z" style="fill:#f9f9f9;paint-order:stroke fill markers"/>
 <path d="m14.215 9a11 11 0 0 0-0.82227 2.1328 12 3.5 0 0 0 10.607 1.8672 12 3.5 0 0 0 10.605-1.8672 11 11 0 0 0-0.80859-2.1328h-19.582z" style="fill:#fff;paint-order:stroke fill markers"/>
 <ellipse cx="24" cy="9.5" rx="10" ry="2.5" style="fill:#e6e6e6;paint-order:stroke fill markers"/>
 <path d="m19 14c-3 0-4.9414 0.97656-4.9414 0.97656 0.502 5.1159 4.8009 9.0179 9.9414 9.0234 4.5037-0.0054 8.4481-3.0207 9.6348-7.3652 0 0-0.63477-1.6348-2.6348-1.6348-3 0-3 2-7 2-3 0-2-3-5-3z" style="fill:#b82121;paint-order:stroke fill markers"/>
 <path d="m28.594 15.598c-1.1143 0.58947-2.0404 1.4023-4.5938 1.4023-0.8836 0-1.4029-0.27343-1.7969-0.64062a6 6 0 0 0-2.2031 4.6406 6 6 0 0 0 0.48828 2.3555c1.0954 0.41269 2.2787 0.6432 3.5117 0.64453 3.1799-0.003813 6.0754-1.5125 7.9238-3.9258a6 6 0 0 0-3.3301-4.4766z" style="fill:#d53f26;paint-order:stroke fill markers"/>
 <path d="m15.08 12.916a9 9 0 0 0-0.080078 1.084 9 9 0 0 0 9 9 9 9 0 0 0 0.5293-0.027344 8 9 0 0 1-7.5293-8.9727 8 9 0 0 1 0.005859-0.14453 11 5 0 0 1-1.9258-0.93945zm17.867 0.15039a8 9 0 0 1 0.007812 0.058594 9 9 0 0 0-0.007812-0.058594zm0.052734 0.93359a8 9 0 0 1-0.029297 0.69141 9 9 0 0 0 0.029297-0.69141z" style="fill:#fff;opacity:.3;paint-order:stroke fill markers"/>
 <path d="m21.034 14.076v3h3v-3zm4 0v3l2.9661-0.07627v-3zm-4 4v3h3v-3zm4 0v3l2.9661-0.07627v-3z" style="opacity:.8;paint-order:stroke fill markers"/>
</svg>
